<svg viewBox="-55 0 512 512.00004" xmlns="http://www.w3.org/2000/svg"><path d="m44.652344 512h311.867187c29.988281 0 46.714844-34.824219 27.792969-58.089844-33.894531-41.679687-92.972656-90.507812-183.726562-90.507812-90.757813 0-149.835938 48.832031-183.730469 90.507812-18.917969 23.265625-2.191407 58.089844 27.796875 58.089844zm0 0" fill="#7de7ff"/><path d="m141.769531 370.765625c-58.3125 15.191406-98.984375 51.261719-124.914062 83.144531-18.917969 23.265625-2.191407 58.089844 27.796875 58.089844h120.441406c-34.058594-50.503906-33.199219-101.832031-23.324219-141.234375zm0 0" fill="#4ad6ed"/><path d="m108.960938 383.621094c-49.722657 0-23.390626 81.039062 16.835937 51.8125-40.226563 29.226562 28.707031 79.3125 44.074219 32.019531-15.367188 47.292969 69.84375 47.292969 54.476562 0 15.367188 47.292969 84.304688-2.792969 44.074219-32.019531 40.230469 29.226562 66.558594-51.8125 16.835937-51.8125zm0 0" fill="#ccf8ff"/><path d="m108.960938 383.621094c-49.722657 0-23.390626 81.039062 16.835937 51.8125-30.132813 21.894531.988281 55.484375 24.960937 51.09375-16.746093-36.625-17.367187-72.554688-11.78125-102.90625-13.128906 0-23.785156 0-30.015624 0zm0 0" fill="#9ff6ff"/><g fill="#ffaea1"><path d="m247.195312 409.4375c0-22.613281-22.421874-40.941406-50.085937-40.941406-27.660156 0-50.085937 18.328125-50.085937 40.941406 0 22.609375 22.425781 40.941406 50.085937 40.941406 27.664063 0 50.085937-18.332031 50.085937-40.941406zm0 0"/><path d="m100.769531 273.890625c0 27.824219-22.558593 50.382813-50.386719 50.382813-27.824218 0-50.382812-22.558594-50.382812-50.382813 0-27.828125 22.558594-50.382813 50.382812-50.382813 27.828126 0 50.386719 22.554688 50.386719 50.382813zm0 0"/><path d="m401.171875 273.890625c0 27.824219-22.558594 50.382813-50.386719 50.382813-27.824218 0-50.382812-22.558594-50.382812-50.382813 0-27.828125 22.558594-50.382813 50.382812-50.382813 27.828125 0 50.386719 22.554688 50.386719 50.382813zm0 0"/></g><path d="m200.585938 423.417969c-89.203126 0-162.183594-72.984375-162.183594-162.183594v-84.167969c0-89.199218 72.980468-162.183594 162.183594-162.183594 89.199218 0 162.179687 72.980469 162.179687 162.183594v84.167969c.003906 89.199219-72.980469 162.183594-162.179687 162.183594zm0 0" fill="#ffe2d9"/><path d="m200.585938 14.882812c-89.203126 0-162.183594 72.980469-162.183594 162.183594v84.167969c0 88.46875 71.820312 160.984375 160.019531 162.167969-73.003906-39.417969-80.589844-140.089844-76.808594-205.375 1.84375-31.789063 20.429688-60.355469 48.894531-74.632813 48.148438-24.144531 62.78125-59.253906 62.78125-59.253906v-65.921875c-10.570312-2.1875-21.507812-3.335938-32.703124-3.335938zm0 0" fill="#ffcfc2"/><path d="m200.585938 321.796875c-15.988282 0-28.949219-12.960937-28.949219-28.945313v-21.046874c0-4.367188 3.539062-7.902344 7.902343-7.902344h42.09375c4.363282 0 7.902344 3.535156 7.902344 7.902344v21.046874c-.003906 15.984376-12.960937 28.945313-28.949218 28.945313zm0 0" fill="#57565c"/><path d="m134.628906 292.851562c0-13.582031-13.824218-24.589843-30.875-24.589843-17.054687 0-30.878906 11.007812-30.878906 24.589843 0 13.578126 13.824219 24.585938 30.878906 24.585938 17.050782 0 30.875-11.007812 30.875-24.585938zm0 0" fill="#ffa6bb"/><path d="m328.296875 292.851562c0-13.582031-13.824219-24.589843-30.878906-24.589843-17.054688 0-30.878907 11.007812-30.878907 24.589843 0 13.578126 13.824219 24.585938 30.878907 24.585938 17.054687 0 30.878906-11.007812 30.878906-24.585938zm0 0" fill="#ffa6bb"/><path d="m283.675781 279.351562c-4.265625 0-7.726562-3.460937-7.726562-7.726562v-12.828125c0-4.265625 3.460937-7.726563 7.726562-7.726563 4.269531 0 7.726563 3.460938 7.726563 7.726563v12.828125c0 4.265625-3.457032 7.726562-7.726563 7.726562zm0 0" fill="#57565c"/><path d="m117.496094 279.351562c-4.269532 0-7.726563-3.460937-7.726563-7.726562v-12.828125c0-4.265625 3.457031-7.726563 7.726563-7.726563 4.265625 0 7.722656 3.460938 7.722656 7.726563v12.828125c0 4.265625-3.457031 7.726562-7.722656 7.726562zm0 0" fill="#57565c"/><path d="m246.042969 12.074219c-7.753907-8.605469-19.238281-12.734375-30.796875-11.9882815-15.515625 1.0000005-39.832032 7.6406245-43.644532 38.8945315-2.59375 21.28125-12.558593 38.757812-22.597656 51.449219-7.285156 9.214843.242188 22.628906 11.890625 21.105468 29.195313-3.808594 68.023438-13.960937 83.238281-40.824218 17.1875-30.34375 11.101563-48.433594 1.910157-58.636719zm0 0" fill="#dd9f80"/></svg>