<svg id="Capa_1" enable-background="new 0 0 512 512" height="512" viewBox="0 0 512 512" width="512" xmlns="http://www.w3.org/2000/svg"><g><path d="m177.402 380.541-40.015 13.211c-9.677 2.448-19.91 1.36-28.856-3.067l-13.146-6.506c-16.717-8.274-36.302-8.439-53.156-.447l-17.107 8.111 57.628 117.035c43.201-21.349 108.686-32.904 173.25-32.904s130.049 11.555 173.25 32.904l57.628-117.035-17.107-8.111c-16.854-7.991-36.439-7.826-53.156.447l-13.146 6.506c-8.946 4.428-19.179 5.515-28.856 3.067l-40.015-13.211v-188.32h-154.318z" fill="#aa7f7f"/><g fill="#9d6c6c"><path d="m374.614 393.752-44.032-28.711c-.66 20.705-4.945 41.075-12.638 58.781-7.919 18.227.437 39.423 18.664 47.343 5.803 2.521 11.903 3.392 17.784 2.822 12.591-1.222 24.161-9.061 29.559-21.485 8.235-18.954 13.809-39.427 16.62-60.524-8.221 3.318-17.31 3.962-25.957 1.774z"/><path d="m181.418 365.041h-3.78l-40.252 28.711c-8.647 2.188-17.736 1.544-25.956-1.776 2.811 21.097 8.385 41.571 16.62 60.524 5.398 12.424 16.968 20.263 29.559 21.485 5.88.571 11.981-.301 17.784-2.822 18.227-7.92 26.583-29.115 18.664-47.343-7.694-17.704-11.978-38.074-12.639-58.779z"/></g><path d="m256 442.164c-69.846 0-140.495 7.77-195.104 22.33l21.854 44.383c43.201-21.349 108.686-32.904 173.25-32.904s130.049 11.555 173.25 32.904l21.854-44.383c-54.609-14.559-125.258-22.33-195.104-22.33z" fill="#9d6c6c"/><ellipse cx="458.064" cy="450.36" fill="#eebfb6" rx="65.227" ry="43.726" transform="matrix(.442 -.897 .897 .442 -148.32 662.362)"/><ellipse cx="53.936" cy="450.36" fill="#eebfb6" rx="43.726" ry="65.227" transform="matrix(.897 -.442 .442 .897 -193.398 70.15)"/><path d="m341.31 449.286c-5.896.384-11.965-.68-17.685-3.384-17.967-8.493-25.647-29.943-17.154-47.91 12.799-27.075 17.655-60.814 13.324-92.565-3.949-28.949-15.446-53.235-30.757-64.965-15.776-12.086-18.767-34.673-6.681-50.448 12.086-15.776 34.673-18.767 50.448-6.681 30.943 23.706 51.646 63.612 58.296 112.367 6.257 45.868-.692 93.118-19.567 133.048-5.788 12.248-17.601 19.716-30.224 20.538z" fill="#aa7f7f"/><path d="m323.625 445.902c-17.967-8.493-25.647-29.943-17.154-47.91 12.799-27.075 17.655-60.814 13.324-92.565-.235-1.72-.498-3.421-.785-5.107.011 5.017-.238 10.172-.766 15.42-3.208 31.884-15.814 63.554-34.585 86.889-12.456 15.485-10.001 38.136 5.484 50.592 4.93 3.965 10.583 6.419 16.405 7.423 11.811 2.037 24.301-1.906 32.803-11.303-4.95-.086-9.959-1.185-14.726-3.439z" fill="#9d6c6c"/><path d="m170.69 449.286c5.896.384 11.965-.68 17.685-3.384 17.967-8.493 25.647-29.943 17.154-47.91-12.799-27.075-17.655-60.814-13.324-92.565 3.949-28.949 15.446-53.235 30.757-64.965 15.776-12.086 18.767-34.673 6.681-50.448-12.086-15.776-34.673-18.767-50.448-6.681-30.943 23.706-51.646 63.612-58.296 112.367-6.257 45.868.692 93.118 19.567 133.048 5.788 12.248 17.601 19.716 30.224 20.538z" fill="#aa7f7f"/><g fill="#9d6c6c"><path d="m193.757 315.74c-.528-5.248-.777-10.403-.766-15.42-.287 1.685-.55 3.387-.785 5.107-4.331 31.751.525 65.49 13.324 92.565 8.493 17.967.813 39.417-17.154 47.91-4.767 2.254-9.777 3.353-14.727 3.439 8.502 9.396 20.992 13.34 32.803 11.303 5.822-1.004 11.475-3.457 16.405-7.423 15.485-12.457 17.94-35.107 5.484-50.592-18.771-23.335-31.376-55.005-34.584-86.889z"/><path d="m379.353 248.695c-10.41-27.359-26.282-49.835-46.548-65.361-15.775-12.087-38.362-9.095-50.448 6.681-.552.72-1.062 1.46-1.551 2.207h-49.612c-.489-.747-.999-1.486-1.551-2.207-12.086-15.776-34.673-18.767-50.448-6.681-20.266 15.526-36.138 38.002-46.548 65.361 11.919 13.623 27.754 23.952 46.293 31.192v.019c4.76 1.858 11.284 4.038 17.346 5.669 18.255 4.912 38.457 7.306 59.714 7.306 21.259 0 41.457-2.4 59.713-7.311 5.932-1.596 12.956-3.889 18.885-6.276 17.883-7.2 33.165-17.352 44.755-30.599z"/><g><path d="m278.134 81.087 53.233 53.233 73.012-42.2c28.099-16.241 33.154-54.71 10.205-77.659-19.282-19.282-50.543-19.282-69.825 0z"/><path d="m233.866 81.087-53.233 53.233-73.012-42.2c-28.099-16.24-33.154-54.71-10.205-77.659 19.282-19.282 50.543-19.282 69.825 0z"/></g></g><path d="m256 7.578c-74.276 0-134.489 43.401-134.489 140.73 0 77.723 60.213 112.754 134.489 112.754s134.489-35.031 134.489-112.754c0-97.328-60.213-140.73-134.489-140.73z" fill="#aa7f7f"/><path d="m298.58 12.895c36.8 20.993 61.13 61.062 61.13 122.924 0 77.723-60.213 112.754-134.489 112.754-18.361 0-35.86-2.145-51.806-6.542 22.793 12.873 51.452 19.032 82.585 19.032 74.276 0 134.489-35.031 134.489-112.754 0-77.828-38.503-121.169-91.909-135.414z" fill="#9d6c6c"/><g fill="#785252"><path d="m197.296 110.983c-4.267 0-7.726-3.459-7.726-7.726v-6.501c0-4.267 3.459-7.726 7.726-7.726s7.726 3.459 7.726 7.726v6.501c.001 4.267-3.459 7.726-7.726 7.726z"/><path d="m314.704 110.983c-4.267 0-7.726-3.459-7.726-7.726v-6.501c0-4.267 3.459-7.726 7.726-7.726s7.726 3.459 7.726 7.726v6.501c0 4.267-3.459 7.726-7.726 7.726z"/></g><path d="m345.332 237.903c.395-2.793.62-5.629.62-8.509 0-40.583-40.273-73.482-89.952-73.482s-89.952 32.899-89.952 73.482c0 2.88.225 5.715.619 8.508 23.755 15.686 55.042 23.159 89.333 23.159s65.577-7.471 89.332-23.158z" fill="#eebfb6"/><path d="m286.971 258.871c.145-.021.288-.045.433-.066 20.492-3.071 40.707-9.532 57.927-20.901.394-2.793.62-5.629.62-8.509 0-9.65-2.281-18.864-6.42-27.306-23.726 31.685-66.045 46.484-114.31 46.484-18.312 0-35.766-2.135-51.677-6.509 32.128 18.1 76.547 22.246 113.427 16.807z" fill="#ebb1a6"/><path d="m256 144.569c-19.121 0-34.622-.022-34.622 18.015s15.501 32.659 34.622 32.659 34.622-14.622 34.622-32.659-15.501-18.015-34.622-18.015z" fill="#8c5e5e"/></g></svg>