<?xml version="1.0" encoding="iso-8859-1"?>
<!-- Generator: Adobe Illustrator 19.0.0, SVG Export Plug-In . SVG Version: 6.00 Build 0)  -->
<svg version="1.1" id="Capa_1" xmlns="http://www.w3.org/2000/svg" xmlns:xlink="http://www.w3.org/1999/xlink" x="0px" y="0px"
	 viewBox="0 0 512 512" style="enable-background:new 0 0 512 512;" xml:space="preserve">
<path style="fill:#868B9B;" d="M311.166,163.171c37.021-35.368,86.626-59.383,128.993-68.867
	c-0.333-13.53,4.259-24.226,8.941-29.895l-0.003-0.008c0,0-105.306,2.607-147.164,103.404
	C308.045,165.183,311.166,163.171,311.166,163.171z"/>
<path style="fill:#707487;" d="M447.653,66.345c0.478-0.694,0.961-1.349,1.447-1.937l-0.003-0.008
	c0,0-105.306,2.607-147.164,103.404c6.112-2.621,9.233-4.633,9.233-4.633c4.683-4.474,9.569-8.765,14.615-12.87
	C359.623,88.81,418.745,71.303,447.653,66.345z"/>
<path style="fill:#AD7B64;" d="M79.295,420.156c-2.788-1.25-4.441-4.148-4.115-7.163l5.162-47.619
	c0.699-6.444,3.32-12.536,7.529-17.498l1.644-1.938c1.747-4.937,4.202-11.24,7.673-19.149c6.842-15.591-10.494-31.401-24.069-52.886
	c5.572,17.252,10.439,31.534,1.724,41.357c-12.319,13.883-17.985,22.225-20.314,26.062c-0.925,1.524-1.498,3.23-1.703,4.997
	l-9.554,82.49c-0.628,4.311,1.976,8.443,6.162,9.776l41.017,13.062c3.492,1.112,7.03-1.551,6.894-5.183
	C97.055,438.758,94.027,426.763,79.295,420.156z"/>
<path style="fill:#966653;" d="M73.118,273.904c5.572,17.252,10.439,31.534,1.724,41.356c-0.502,0.565-0.975,1.107-1.455,1.654
	c3.079,4.731,6.19,9.085,9.049,13.08c2.607,3.644,6.002,8.392,8.394,12.341c1.61-4.302,3.679-9.44,6.358-15.546
	C104.03,311.199,86.693,295.39,73.118,273.904z"/>
<path style="fill:#868B9B;" d="M62.561,206.948c2.345-8.58,6.008-15.912,10.681-22.022c-13.252-5.511-41.915-12.648-62.781,11.341
	c-30.904,35.529,18.944,119.528-5.515,178.088c-2.56,6.129,4.677,11.699,9.853,7.536C110.734,304.728-1.47,210.741,62.561,206.948z"
	/>
<path style="fill:#707487;" d="M31.066,196.267c8.198-9.426,17.6-14.033,26.798-15.835c-14.299-2.499-32.766-0.993-47.403,15.835
	c-30.904,35.529,18.944,119.528-5.515,178.088c-2.56,6.129,4.677,11.699,9.853,7.536c4.444-3.575,8.44-7.186,12.029-10.822
	C48.181,312.694,0.734,231.137,31.066,196.267z"/>
<path style="fill:#AD7B64;" d="M350.883,310.693l2.792-7.929c12.662-14.718,19.404-30.967,22.94-45.178
	c2.621,6.872,3.689,11.385,3.689,11.385s4.404,12.783,38.926,31.67c28.37,15.522,34.709,51.453,36.067,63.764
	c0.264,2.396,1.894,4.365,4.144,5.264c8.042,3.215,10.27,11.568,10.832,17.16c0.292,2.905-2.036,5.412-4.973,5.412h-31.231
	c-3.822,0-6.92-3.08-6.92-6.878v-18.147c-1.425-42.967-19.003-39.662-54.157-47.689C364.27,317.536,356.957,314.353,350.883,310.693
	z"/>
<path style="fill:#966653;" d="M380.304,268.971c0,0-1.068-4.513-3.688-11.385c-3.536,14.211-10.278,30.46-22.94,45.178
	l-2.792,7.929c5.498,3.313,12.024,6.226,19.678,8.227l2.056-5.874c8.196-10.245,14.094-20.982,18.341-31.415
	C381.944,273.694,380.304,268.971,380.304,268.971z"/>
<path style="fill:#BC8C79;" d="M510.569,183.565l-18.613-32.431l-3.559-21.356l-14.566-23.243c-1.323-2.111-1.988-4.559-1.924-7.05
	c0.189-7.383-0.93-24.671-13.903-37.973c-1.834-1.881-4.878-1.87-6.727-0.004c-4.841,4.886-13.013,15.607-12.545,31.875
	c-17.95,2.688-79.297,23.356-127.593,69.497c0,0-25.628,16.551-74.213,16.551c-48.586,0-79.018-18.153-113.189-18.153
	S58.6,183.169,58.6,230.153s48.764,72.078,38.085,96.637c-7.37,16.952-10.162,26.612-11.185,30.97
	c-0.406,1.732-0.425,3.53-0.077,5.274l16.231,81.43c0.727,4.295,4.447,7.439,8.803,7.439h42.684c3.635,0,6.156-3.608,4.916-7.025
	c-2.63-7.249-9.156-17.75-25.073-19.574c-3.013-0.345-5.458-2.603-6.073-5.572l-9.703-46.9c-1.313-6.347-0.705-12.941,1.746-18.941
	l14.362-35.149c4.364-10.681,16.815-20.506,24.116-44.094l0.003,0.001c67.831,42.872,147.517,17.083,147.607,17.054
	c4.177,20.593,11.079,43.45,11.079,43.45v109.273c0,4.128,3.347,7.475,7.475,7.475h47.57c2.556,0,4.437-2.417,3.793-4.89
	c-3.107-11.943-17.468-16.107-25.785-17.53c-3.478-0.595-6.001-3.645-6.001-7.173v-87.51l11.212-32.034
	c31.501-36.84,26.161-83.29,26.161-83.29c12.333-31.244,37.962-50.776,49.099-58.108c2.822-1.858,6.631-0.854,8.194,2.141
	c3.57,6.842,5.515,12.188,12.97,15.396c7.929,3.413,22.193,10.645,35.133,22.921c3.895,3.695,9.844,4.156,14.226,1.055l7.278-5.15
	C511.983,194.519,513.335,188.386,510.569,183.565z"/>
<g>
	<path style="fill:#AD7B64;" d="M256.664,179.431c48.586,0,74.213-16.551,74.213-16.551
		c44.928-42.922,101.148-63.801,123.222-68.669c2.493-0.55,4.281-2.692,4.456-5.239c0.536-7.825,3.061-14.171,5.945-19.014
		c-1.742-2.903-3.876-5.759-6.502-8.451c-1.839-1.885-4.864-1.874-6.718-0.003c-4.84,4.884-13.017,15.607-12.549,31.879
		c-17.95,2.688-79.297,23.356-127.593,69.497c0,0-22.114,14.265-64.176,16.302C250.119,179.34,253.345,179.431,256.664,179.431z"/>
	<path style="fill:#AD7B64;" d="M121.393,444.464l-16.231-81.43c-0.348-1.745-0.329-3.542,0.077-5.274
		c1.022-4.358,3.814-14.018,11.185-30.97c10.678-24.56-38.085-49.654-38.085-96.637c0-42.707,25.587-64.676,55.908-68.323
		c-3.479-0.348-6.974-0.552-10.509-0.552c-34.17,0-65.137,21.89-65.137,68.874s48.764,72.078,38.085,96.637
		c-7.37,16.952-10.162,26.612-11.185,30.97c-0.406,1.732-0.425,3.53-0.077,5.274l16.231,81.43c0.727,4.295,4.447,7.439,8.803,7.439
		h19.738C125.841,451.903,122.12,448.759,121.393,444.464z"/>
	<path style="fill:#AD7B64;" d="M171.549,234.679c-1.53-3.967-5.968-5.933-9.944-4.423c-3.975,1.509-5.976,5.965-4.488,9.947
		c0.052,0.14,5.168,14.186,0.72,32.636c-0.146,0.604-0.275,1.209-0.401,1.812c4.746,3,9.551,5.652,14.382,8.012
		c0.212-2.064,0.544-4.141,1.041-6.202C178.49,253.109,171.835,235.42,171.549,234.679z"/>
	<path style="fill:#AD7B64;" d="M299.844,265.328c-0.824-4.187-4.888-6.911-9.075-6.088c-4.187,0.824-6.913,4.887-6.088,9.075
		l5.329,27.062c9.387-1.851,14.948-3.644,15.028-3.67L299.844,265.328z"/>
</g>
<circle style="fill:#966653;" cx="474" cy="143.2" r="7.04"/>
<g>
</g>
<g>
</g>
<g>
</g>
<g>
</g>
<g>
</g>
<g>
</g>
<g>
</g>
<g>
</g>
<g>
</g>
<g>
</g>
<g>
</g>
<g>
</g>
<g>
</g>
<g>
</g>
<g>
</g>
</svg>
