<?xml version="1.0" encoding="iso-8859-1"?>
<!-- Generator: Adobe Illustrator 19.0.0, SVG Export Plug-In . SVG Version: 6.00 Build 0)  -->
<svg version="1.1" id="Capa_1" xmlns="http://www.w3.org/2000/svg" xmlns:xlink="http://www.w3.org/1999/xlink" x="0px" y="0px"
	 viewBox="0 0 512 512" style="enable-background:new 0 0 512 512;" xml:space="preserve">
<g>
	<path style="fill:#3A484A;" d="M13.341,442.721c-6.817,11.774-17.781,30.12-11.433,44.275
		c5.288,11.789,24.518,22.726,37.087,24.748c14.923,2.402,21.93-12.622,25.68-24.603L13.341,442.721z"/>
	<path style="fill:#3A484A;" d="M442.722,13.341c11.774-6.817,30.119-17.781,44.274-11.433
		c11.789,5.288,22.726,24.518,24.748,37.087c2.402,14.923-12.622,21.93-24.603,25.68L442.722,13.341z"/>
</g>
<g>
	<path style="fill:#FADC60;" d="M19.111,455.011c-9.818-17.38-13.715-38.706-14.726-57.877
		c-5.481-104.02,50.299-199.65,121.698-271.051S293.113-1.096,397.135,4.384c19.171,1.012,40.497,4.909,57.877,14.726
		L19.111,455.011z"/>
	<path style="fill:#FADC60;" d="M64.674,487.141c19.295,2.114,39.726-5.199,55.339-17.363c31.948-24.884,46.716-65.39,66.078-99.527
		c21.442-37.811,43.316-78.839,74.319-109.842s72.031-52.877,109.842-74.319c34.137-19.361,74.643-34.129,99.527-66.078
		c12.164-15.613,19.478-36.045,17.363-55.339l-75.679-14.735L208.967,208.967L61.134,389.49L64.674,487.141z"/>
</g>
<path style="fill:#F2C42C;" d="M475.45,36.15c6.916,8.64,10.596,18.425,11.692,28.524c-26.965,15.224-55.39,28.374-81.517,43.192
	c-61.127,34.676-127.47,70.041-177.594,120.164s-85.489,116.467-120.164,177.594c-14.817,26.127-27.968,54.552-43.192,81.517
	c-10.1-1.094-19.884-4.776-28.524-11.692c-7.057-5.646-12.645-12.645-17.039-20.439c6.426-114.485,66.691-215.679,143.457-292.444
	S340.527,25.537,455.012,19.111C462.806,23.505,469.804,29.094,475.45,36.15z"/>
<g>
	<path style="fill:#3A484A;" d="M141.565,272.22c-1.977,0-3.955-0.754-5.463-2.263l-11.125-11.124
		c-3.018-3.017-3.018-7.91-0.001-10.927c3.018-3.017,7.911-3.017,10.926,0l11.125,11.124c3.018,3.017,3.018,7.91,0.001,10.927
		C145.519,271.466,143.542,272.22,141.565,272.22z"/>
	<path style="fill:#3A484A;" d="M264.494,149.29c-1.978,0-3.955-0.754-5.464-2.263l-11.124-11.124
		c-3.017-3.017-3.017-7.91,0.001-10.927c3.017-3.017,7.91-3.016,10.926,0l11.124,11.124c3.017,3.017,3.017,7.91-0.001,10.927
		C268.449,148.535,266.471,149.29,264.494,149.29z"/>
	<path style="fill:#3A484A;" d="M188.878,225.212c-0.77,0-1.539-0.026-2.311-0.077c-4.258-0.286-7.477-3.969-7.191-8.227
		c0.287-4.259,3.975-7.475,8.227-7.191c5.766,0.388,11.566-1.877,15.901-6.213c4.336-4.336,6.6-10.132,6.213-15.902
		c-0.285-4.258,2.935-7.941,7.192-8.226c4.255-0.285,7.941,2.934,8.226,7.192c0.686,10.218-3.216,20.374-10.705,27.863
		C207.507,221.355,198.303,225.212,188.878,225.212z"/>
</g>
<g>
</g>
<g>
</g>
<g>
</g>
<g>
</g>
<g>
</g>
<g>
</g>
<g>
</g>
<g>
</g>
<g>
</g>
<g>
</g>
<g>
</g>
<g>
</g>
<g>
</g>
<g>
</g>
<g>
</g>
</svg>
