<svg id="Capa_1" enable-background="new 0 0 497 497" height="512" viewBox="0 0 497 497" width="512" xmlns="http://www.w3.org/2000/svg"><g><path d="m283.521 129.5h-72.042v-114.5c0-8.284 6.716-15 15-15h27.042l15 1c8.284 0 14 5.716 14 14z" fill="#b67f5f"/><path d="m268.521 0h-15c5.523 0 10 4.477 10 10v119.5h20v-114.5c0-8.284-6.716-15-15-15z" fill="#a06e50"/><path d="m287.413 486.207.024-.013c92.417-49.661 143.087-150.66 128.454-254.549l-4.637-40.021h-325.508l-5.5 39.05-.137.971c-.394 2.798 1.961 8.39 1.961 8.39s-3.679 7.067-3.905 10.592c-6.233 97.158 44.619 189.936 131.397 236.567l.025.013c7.052 3.79 14.519 6.479 22.161 8.069 18.688 3.888 38.418.199 55.665-9.069z" fill="#ffd54f"/><path d="m418.045 241.157c-.018-.173-6.791-49.533-6.791-49.533h-325.508s-7.172 52.691-7.577 59.003c.848.071 287.949.115 287.949.115 12.989 0 23.51 10.704 23.106 23.687-2.746 88.269-52.129 169.959-131.787 212.765l-.025.013c-7.59 4.079-15.661 6.883-23.913 8.413 18.165 3.37 37.204.565 53.913-8.413l.025-.013c89.594-48.144 140.89-145.479 130.608-246.037z" fill="#ffca28"/><path d="m44.263 167.527c0 15.221 2.85 29.933 8.159 43.842 4.468 11.705 28.309 19.373 28.309 19.373h335.537c12.528 0 21.841-7.668 26.309-19.373 5.309-13.909 8.159-28.62 8.159-43.842 0-22.541-6.24-43.967-17.47-63.323-12.004-20.689-32.252-32.289-56.172-32.289l-22.928-1h-234.261c-23.92 0-46.168 12.6-58.172 33.289-11.23 19.356-17.47 40.782-17.47 63.323z" fill="#b67f5f"/><path d="m435.267 104.205c-12.004-20.689-34.252-33.289-58.172-33.289h-30c23.92 0 46.168 12.6 58.172 33.289 11.23 19.355 17.47 40.781 17.47 63.322 0 15.222-2.85 29.933-8.159 43.842-4.468 11.705-15.78 19.373-28.309 19.373h30c12.528 0 23.841-7.669 28.309-19.373 5.309-13.909 8.159-28.62 8.159-43.842 0-22.541-6.24-43.967-17.47-63.322z" fill="#a06e50"/></g></svg>