<svg id="Capa_1" enable-background="new 0 0 497.324 497.324" height="512" viewBox="0 0 497.324 497.324" width="512" xmlns="http://www.w3.org/2000/svg"><path d="m269.522 435.748h-41.72v40.716c0 11.521 9.339 20.86 20.86 20.86 11.521 0 20.86-9.339 20.86-20.86z" fill="#68ca44"/><path d="m321.01 268.141v-80-60.09c0-45.168-18.483-88.368-51.153-119.558-11.862-11.324-30.53-11.324-42.391 0-32.669 31.19-51.153 74.39-51.153 119.558v60.09 177.34h144.697z" fill="#fee45a"/><path d="m224.482 193.544v-60.09c0-45.075 18.41-88.189 50.956-119.365-1.813-1.904-3.67-3.773-5.58-5.596-11.862-11.324-30.53-11.324-42.392 0-32.669 31.19-51.153 74.39-51.153 119.558v60.09 177.34h48.169z" fill="#fedf30"/><path d="m192.322 158.144h-16.009v29.997 177.34h102.348v-120.997c.001-47.608-38.731-86.34-86.339-86.34z" fill="#fedf30"/><path d="m305.002 238.144c-47.608 0-86.34 38.732-86.34 86.34v40.997h102.348v-97.34-29.997z" fill="#fedf30"/><path d="m248.662 244.484v207.26h-32.56c-31.91 0-57.77-25.86-57.77-57.77v-166.64c0-1.41-.24-2.81-.71-4.14l-10.49-29.92c-.88-2.51.98-5.13 3.64-5.13h41.55c31.12 0 56.34 25.22 56.34 56.34z" fill="#80d261"/><path d="m246.912 451.744h-30.81c-31.91 0-57.77-25.86-57.77-57.77v-166.64c0-1.41-.24-2.81-.71-4.14l-10.49-29.92c-.88-2.51.98-5.13 3.64-5.13h25.36l12.3 35.05c.47 1.33.7 2.73.7 4.14v166.64c0 31.91 25.87 57.77 57.78 57.77z" fill="#68ca44"/><path d="m346.552 268.144c2.66 0 4.52 2.62 3.64 5.13l-10.49 29.92c-.47 1.33-.71 2.73-.71 4.14v86.64c0 31.91-25.86 57.77-57.77 57.77h-32.56v-127.26c0-31.12 25.22-56.34 56.34-56.34z" fill="#97da7b"/><path d="m267.359 353.378c0-31.12 25.22-56.34 56.34-56.34h18.161l8.332-23.764c.88-2.51-.98-5.13-3.64-5.13h-41.55c-31.12 0-56.34 25.22-56.34 56.34v127.26h18.697z" fill="#80d261"/><path d="m306.251 362.938c-4.143 0-7.5 3.358-7.5 7.5v23.539c0 27.659-22.453 50.167-50.089 50.266v7.501h30.153c20.751-10.941 34.936-32.723 34.936-57.767v-23.539c0-4.142-3.358-7.5-7.5-7.5z" fill="#80d261"/><g fill="#fed402"><path d="m284.389 108.93h-21.321c-4.143 0-7.5-3.358-7.5-7.5s3.357-7.5 7.5-7.5h21.321c4.143 0 7.5 3.358 7.5 7.5s-3.357 7.5-7.5 7.5z"/><path d="m284.389 173.856h-9.53c-4.143 0-7.5-3.358-7.5-7.5s3.357-7.5 7.5-7.5h9.53c4.143 0 7.5 3.358 7.5 7.5s-3.357 7.5-7.5 7.5z"/><path d="m286.389 240.306h-6.53c-4.143 0-7.5-3.358-7.5-7.5s3.357-7.5 7.5-7.5h6.53c4.143 0 7.5 3.358 7.5 7.5s-3.357 7.5-7.5 7.5z"/><path d="m234.52 86.889h-18.876c-4.143 0-7.5-3.358-7.5-7.5s3.357-7.5 7.5-7.5h18.876c4.143 0 7.5 3.358 7.5 7.5s-3.357 7.5-7.5 7.5z"/><path d="m233.32 148.899h-17.676c-4.143 0-7.5-3.358-7.5-7.5s3.357-7.5 7.5-7.5h17.676c4.143 0 7.5 3.358 7.5 7.5s-3.357 7.5-7.5 7.5z"/><path d="m253.428 45.092h-9.531c-4.143 0-7.5-3.358-7.5-7.5s3.357-7.5 7.5-7.5h9.531c4.143 0 7.5 3.358 7.5 7.5s-3.358 7.5-7.5 7.5z"/></g><path d="m306.251 349.291c-4.143 0-7.5-3.358-7.5-7.5v-24.137c0-4.142 3.357-7.5 7.5-7.5s7.5 3.358 7.5 7.5v24.137c0 4.142-3.358 7.5-7.5 7.5z" fill="#80d261"/></svg>