<?xml version="1.0" encoding="iso-8859-1"?>
<!-- Generator: Adobe Illustrator 19.0.0, SVG Export Plug-In . SVG Version: 6.00 Build 0)  -->
<svg version="1.1" id="Capa_1" xmlns="http://www.w3.org/2000/svg" xmlns:xlink="http://www.w3.org/1999/xlink" x="0px" y="0px"
	 viewBox="0 0 511.999 511.999" style="enable-background:new 0 0 511.999 511.999;" xml:space="preserve">
<path style="fill:#76C9D2;" d="M453.726,198.224h-12.553C421.523,138.251,365.105,94.93,298.561,94.93H264.65
	c-22.598-23.285-69.854-63.766-128.167-67.473c-20.67-1.314-35.209,19.905-26.986,38.914c9.073,20.974,13.342,42.953,15.334,60.024
	C50.321,168.419,0,248.294,0,339.934l0,0c0,67.552,54.762,122.315,122.315,122.315h3.063c6.815,13.267,20.626,22.351,36.569,22.351
	h28.971c4.977,0,9.013-4.036,9.013-9.013l0,0c0-17.719-14.365-32.084-32.084-32.084c17.719,0,32.084-14.365,32.084-32.084
	c0-4.977-4.035-9.013-9.013-9.013h-28.971c-15.941,0-29.754,9.083-36.569,22.351h-1.239c-24.474,0-44.313-19.839-44.313-44.313
	c0-36.271,29.402-65.673,65.673-65.673h308.225c32.183,0,58.274-26.09,58.274-58.274l0,0
	C512,224.314,485.909,198.224,453.726,198.224z"/>
<path style="opacity:0.3;fill:#FFFFFF;enable-background:new    ;" d="M146.868,285.349c-36.271,0-65.673,29.402-65.673,65.673
	c0,3.725,0.465,7.338,1.33,10.794c8.032-27.194,33.179-47.045,62.976-47.045h218.076l0,0c0-16.25-13.173-29.423-29.423-29.423
	L146.868,285.349L146.868,285.349z"/>
<path style="opacity:0.15;enable-background:new    ;" d="M160.391,270.92c0,16.022-5.222,33.443-14.89,43.851h34.919
	L160.391,270.92z"/>
<g>
	<path style="fill:#394049;" d="M340.749,201.3c-4.504,0-8.156-3.652-8.156-8.156v-4.417c0-4.504,3.652-8.156,8.156-8.156
		c4.505,0,8.156,3.652,8.156,8.156v4.417C348.905,197.648,345.254,201.3,340.749,201.3z"/>
	<path style="fill:#394049;" d="M465.443,266.505c-6.051,0-11.585-2.254-15.808-5.967c-4.223,3.713-9.757,5.967-15.808,5.967
		c-13.213,0-23.964-10.75-23.964-23.964c0-4.504,3.651-8.156,8.156-8.156c4.505,0,8.156,3.652,8.156,8.156
		c0,4.219,3.432,7.652,7.652,7.652c4.219,0,7.652-3.432,7.652-7.652c0-4.504,3.651-8.156,8.156-8.156
		c4.505,0,8.156,3.652,8.156,8.156c0,4.219,3.432,7.652,7.652,7.652c4.219,0,7.652-3.432,7.652-7.652
		c0-4.504,3.651-8.156,8.156-8.156c4.505,0,8.156,3.652,8.156,8.156C489.406,255.756,478.656,266.505,465.443,266.505z"/>
</g>
<path style="fill:#F0B0B7;" d="M354.219,233.016h-26.941c-4.504,0-8.156-3.652-8.156-8.156c0-4.504,3.652-8.156,8.156-8.156h26.942
	c4.504,0,8.156,3.652,8.156,8.156C362.375,229.364,358.725,233.016,354.219,233.016z"/>
<path style="fill:#76C9D2;" d="M196.483,368.803c62.383-22.056,91.74-95.845,91.74-95.845l-127.833-2.037
	c0,0,11.713,36.289,6.742,73.751C164.946,361.146,180.815,374.342,196.483,368.803z"/>
<g>
</g>
<g>
</g>
<g>
</g>
<g>
</g>
<g>
</g>
<g>
</g>
<g>
</g>
<g>
</g>
<g>
</g>
<g>
</g>
<g>
</g>
<g>
</g>
<g>
</g>
<g>
</g>
<g>
</g>
</svg>
