<svg id="Capa_1" enable-background="new 0 0 512 512" height="512" viewBox="0 0 512 512" width="512" xmlns="http://www.w3.org/2000/svg"><g><g><path clip-rule="evenodd" d="m207.809 8.772c-7.017 17.836-6.55 39.153 0 63.305l30.526 11.871 30.526-11.959c-3.392-22.135-3.538-43.246 0-63.217.848-4.737-3.889-8.743-8.713-8.772h-43.538c-5.058 0-7.193 4.737-8.801 8.772z" fill="#ce9875" fill-rule="evenodd"/></g><g><path clip-rule="evenodd" d="m246.581.673c-2.807 15.819-3.304 32.369-1.696 49.562l23.976 21.755c-3.392-22.135-3.538-43.246 0-63.217.848-4.737-3.889-8.743-8.713-8.772h-13.479c-.001.204-.03.438-.088.672z" fill="#c6865c" fill-rule="evenodd"/></g><g><path clip-rule="evenodd" d="m391.402 284.541 11.525 41.835-35.266 22.489-3.364 43.687-40.082 5.317-17.693 38.921-38.831-12.687-29.358 28.217-31.631-28.717-36.528 13.187-19.646-40.413-38.16-3.825-4.496-44.438c-.09-.941-.631-1.792-1.452-2.273l-30.76-18.324c-1.131-.671-1.692-2.023-1.372-3.304l10.203-40.943c.21-.861.03-1.782-.501-2.503l-22.519-30.73c-.761-1.031-.771-2.433-.05-3.485l23.05-33.343c.501-.731.661-1.652.421-2.513l-10.554-38.35c-.35-1.272.17-2.623 1.282-3.334l32.152-20.487c.801-.501 1.312-1.362 1.382-2.303l3.034-39.752c.11-1.422 1.192-2.563 2.593-2.754l36.057-4.786c1.021-.13 1.912-.791 2.343-1.732l15.881-34.956c.641-1.392 2.213-2.083 3.675-1.612l34.555 11.295c1.051.35 2.213.08 3.014-.691l26.004-25.024c1.142-1.091 2.934-1.121 4.105-.06l28.247 25.623c.821.741 1.993.971 3.034.601l32.282-11.665c1.444-.522 3.049.13 3.72 1.512l17.348 35.727c0 .01 0 .01.01.02l.351.731c.461.931 1.362 1.572 2.403 1.672l34.046 3.42c1.421.143 2.545 1.266 2.688 2.687l4.247 41.994c.096.947.634 1.792 1.452 2.279l30.768 18.321c1.138.678 1.698 2.02 1.378 3.306l-10.177 40.939c-.215.865-.035 1.78.492 2.499l22.527 30.763c.757 1.033.775 2.432.046 3.485z" fill="#ccf49f" fill-rule="evenodd"/></g><g><path clip-rule="evenodd" d="m391.775 285.894 11.152 40.481-35.266 22.489-3.364 43.687-40.082 5.317c38.711-106.889 27.206-212.877.841-299.901l.351.731c.461.931 1.362 1.572 2.403 1.672l34.046 3.42c1.421.143 2.545 1.266 2.688 2.687l4.247 41.994c.096.947.634 1.792 1.452 2.279l30.768 18.321c1.138.678 1.698 2.02 1.378 3.306l-10.516 42.303 23.358 31.898c.757 1.033.775 2.432.046 3.485l-23.076 33.324c-.506.731-.662 1.649-.426 2.507z" fill="#b3e59f" fill-rule="evenodd"/></g><g><path d="m184.563 363.589c-1.93 0-3.863-.718-5.364-2.163l-22.573-21.725c-1.599-1.539-2.46-3.691-2.364-5.908l2.074-47.859-11.507-35.877c-.482-1.501-.493-3.114-.033-4.622l11.853-38.841-2.383-44.954c-.112-2.111.645-4.176 2.095-5.716l17.513-18.586 7.284-40.774c.75-4.207 4.77-7.011 8.976-6.255 4.206.751 7.006 4.77 6.255 8.976l-7.689 43.042c-.264 1.48-.954 2.851-1.984 3.945l-16.824 17.853 2.281 43.011c.048.902-.062 1.804-.325 2.668l-11.545 37.831 11.19 34.887c.279.871.402 1.785.363 2.698l-1.982 45.753 20.057 19.305c3.078 2.963 3.172 7.86.209 10.939-1.52 1.579-3.547 2.372-5.577 2.372z" fill="#b3e59f"/></g><g><path d="m318.152 338.735c-4.058 0-7.464-3.161-7.715-7.266l-2.632-43.188c-.062-1.021.079-2.045.415-3.011l13.043-37.515-12.624-34.636c-.353-.969-.509-2-.458-3.03l2.243-45.507-17.862-15.665c-1.248-1.095-2.111-2.563-2.462-4.187l-9.737-45.176c-.9-4.176 1.756-8.292 5.933-9.193 4.184-.895 8.292 1.758 9.193 5.933l9.198 42.675 18.749 16.443c1.775 1.556 2.742 3.839 2.626 6.197l-2.35 47.679 13.032 35.755c.609 1.674.624 3.508.038 5.19l-13.439 38.653 2.539 41.641c.26 4.264-2.987 7.933-7.252 8.193-.161.01-.32.015-.478.015z" fill="#b3e59f"/></g><g><path d="m248.827 351.63c-4.153 0-7.587-3.296-7.727-7.479l-1.872-56.083c-.019-.573.026-1.146.133-1.709l7.377-38.63-7.158-35.74c-.115-.569-.164-1.149-.148-1.731l1.281-46.9-10.13-16.146c-.726-1.159-1.133-2.489-1.179-3.856l-1.492-45.177c-.141-4.27 3.206-7.846 7.478-7.987.087-.003.173-.004.26-.004 4.154 0 7.589 3.297 7.727 7.481l1.422 43.089 10.265 16.359c.811 1.293 1.222 2.797 1.18 4.324l-1.322 48.366 7.284 36.367c.196.979.201 1.989.014 2.971l-7.5 39.269 1.843 55.221c.142 4.27-3.204 7.847-7.475 7.99-.086.004-.173.005-.261.005z" fill="#b3e59f"/></g><g><path clip-rule="evenodd" d="m69.522 377.484c.895-.079 1.686 2.112 2.604 2.074 19.759-.828 44.672 13.688 62.847 30.989 9.971-6.053 25.629-9.448 42.032-12.928 9.093-1.93 19.532-3.538 31.637-4.912 5.789-.643 11.959-1.228 18.567-1.754 8.538-4.678 16.783-8.304 26.052-11.228 12.134-3.772 26.052-6.316 44.853-8.216 2.749-.292 5.614-.556 8.596-.789 3.596-.322 7.368-.614 11.316-.906 6.023-2.368 12.339-4.298 18.742-5.79 11.111-2.544 22.514-3.713 33.333-3.421 11.169.322 18.201-7.233 27.031-3.608 12.602-15.558 27.731-30.859 51.006-50.05 9.726-2.272-369.014 67.326-378.616 70.539z" fill="#ffdecf" fill-rule="evenodd"/></g><g><path clip-rule="evenodd" d="m145.909 414.889c9.591 13.801 21.959 33.1 33.947 41.521 23.187 16.258 50.73 22.573 82.163 19.591-.146-22.632-21.549-64.796-38.333-94.475-20.438 1.667-36.754 3.801-50.204 6.667-16.433 3.509-28.538 8.07-38.508 14.152 4.766 4.532 8.479 8.976 10.935 12.544z" fill="#fde588" fill-rule="evenodd"/></g><g><path clip-rule="evenodd" d="m314.504 360.385c4.386 8.421 6.608 11.374 9.678 26.433.322 1.55-.965-5.497.994 5.029s.994 56.258-10.292 72.662c69.97-23.275 72.017-73.451 82.601-107.37-17.427-7.222-41.491-7.778-64.239-2.544-6.403 1.492-12.719 3.422-18.742 5.79z" fill="#fde588" fill-rule="evenodd"/></g><g><path clip-rule="evenodd" d="m223.686 381.526c-2.281 20.79 3.655 53.568 16.228 72.72 5.672 8.626 13.012 16.141 22.105 21.755 5.351-.497 10.789-1.257 16.374-2.31 13.83-2.573 25.935-5.673 36.491-9.181 19.707-22.778 17.105-75.381-.38-104.124-3.947.292-7.719.585-11.316.906-23.275 1.988-39.532 4.678-53.45 9.006-9.268 2.923-17.514 6.549-26.052 11.228z" fill="#fde588" fill-rule="evenodd"/></g><g><path clip-rule="evenodd" d="m205.119 383.28c-1.345 21.989 3.801 46.872 16.813 66.638 2.105 3.246 4.474 6.345 7.017 9.298 2.836 3.246 5.965 6.287 9.357 9.064 7.164.38 14.561.205 22.193-.526-9.123-5.614-16.433-13.129-22.105-21.755-12.602-19.152-16.988-43.685-14.707-64.475-6.609.528-12.778 1.113-18.568 1.756z" fill="#fdd76f" fill-rule="evenodd"/></g><g><path clip-rule="evenodd" d="m304.972 394.333c3.684 19.737.088 48.509-10.292 67.311 6.696-1.667 12.924-3.45 18.684-5.38 11.257-16.404 15.38-45.205 11.813-64.416-.351-1.813-.673-3.48-.994-5.029-3.07-15.059-5.292-18.012-9.678-26.433-3.947.292-7.719.585-11.316.906-2.982.234-5.848.497-8.596.789 2.807 5.322 4.795 9.035 6.842 16.287.789 2.807 1.579 6.14 2.427 10.322.292 1.374.585 2.866.906 4.474.057.379.145.759.204 1.169z" fill="#fdd76f" fill-rule="evenodd"/></g><g><path clip-rule="evenodd" d="m132.099 451.91 10.891 33.354c.441 1.35 1.766 2.207 3.178 2.054l38.307-4.139c.94-.102 1.873.245 2.518.936l25.15 26.93c.9.964 2.324 1.228 3.509.651l34.549-16.807c.8-.389 1.732-.404 2.544-.04l35.742 16.035c1.169.524 2.542.25 3.419-.684l25.201-26.829c.611-.65 1.479-.995 2.369-.942l40.695 2.443c1.322.079 2.54-.716 2.998-1.958l11.979-32.454c.33-.893 1.063-1.577 1.976-1.843l39.143-11.431c1.372-.401 2.271-1.712 2.151-3.136l-2.922-34.6 32.856-24.272c1.236-.913 1.583-2.611.806-3.936l-17.668-30.126 19.314-31.283c.934-1.513-.424-3.399-2.158-3.006-34.649 7.846-44.559 27.232-51.512 50.166-11.959 39.299-15.321 88.949-120.291 108.452-55.175 10.263-99.531-5.409-130.934-50.556-3.216-4.62-6.871-8.831-10.848-12.602-18.95-18.038-45.194-26.515-65.318-24.821-1.897.16-2.545 2.624-.997 3.732l26.369 18.87c.903.646 1.376 1.737 1.23 2.838l-4.614 34.788c-.201 1.517.77 2.942 2.255 3.311l35.98 8.923c1.005.248 1.811.998 2.133 1.982z" fill="#ccf49f" fill-rule="evenodd"/></g><g><path clip-rule="evenodd" d="m353.392 351.525c1.053 11.257 1.287 22.837.702 34.65-.146 2.544-.322 5.088-.526 7.632-1.374 16.872-4.415 33.1-8.889 48.392 39.766-23.889 43.918-57.194 52.455-85.206-7.485-3.07-16.169-4.883-25.438-5.556-1.696-.146-3.392-.205-5.117-.263-4.328-.117-8.743 0-13.187.351z" fill="#fdd76f" fill-rule="evenodd"/></g><g><path clip-rule="evenodd" d="m349.415 325.487c1.725 8.333 3.158 17.266 3.977 26.038 4.444-.351 8.86-.468 13.187-.351 1.725.059 3.421.117 5.117.263 9.269.673 17.953 2.485 25.438 5.556 14.837-16.848 27.473-36.963 51.011-49.921.268-.148.412-.238.412-.238l-98.937 17.923-.351.059c.029.234.263.833.322 1.038z" fill="#ffcebe" fill-rule="evenodd"/></g><g><path clip-rule="evenodd" d="m397.134 356.993c-8.538 28.012-12.69 61.317-52.455 85.206-1.053 3.597-2.193 7.135-3.392 10.614-3.655 10.585-8.012 20.644-12.982 30.147l31.867 1.913c1.322.079 2.54-.716 2.998-1.958l11.979-32.454c.33-.893 1.063-1.577 1.976-1.843l39.143-11.431c1.372-.401 2.271-1.712 2.151-3.136l-2.781-32.928c-.088-1.039.37-2.049 1.208-2.669l31.506-23.275c1.236-.913 1.583-2.611.806-3.936l-16.754-28.567c-.563-.959-.549-2.151.035-3.098l18.364-29.744c.934-1.513-.424-3.399-2.158-3.006-34.648 7.845-44.558 27.231-51.511 50.165z" fill="#b3e59f" fill-rule="evenodd"/></g></g></svg>