<svg id="Capa_1" enable-background="new 0 0 497 497" height="512" viewBox="0 0 497 497" width="512" xmlns="http://www.w3.org/2000/svg"><g><g><g><path d="m469.255 206.849c-29.446-32.089-90.895-51.007-158.326-49.967 9.71-24.718 23.404-82.024-11.415-86.911-30.198-4.238-56.59 31.622-55.115 94.434-30.103 6.449-59.736 17.168-86.696 32.738-20.236 11.687-38.555 25.908-54.933 41.188-4.469-19.056-15.789-38.943 8.797-70.08 31.173-39.477 5.568-107.478-46.161-84.964-47.185 20.535-65.433 105.827 5.81 190.121-39.692 49.802-68.898 105.576-68.898 105.576-12.696 34.345 29.871 61.34 52.171 41.817 10.737-9.4 28.871-34.006 58.142-63.192 44.587 46.499 113.17 57.588 132.699 35.188 23.106-26.502.931-54.163-43.531-56.075-18.709-.804-39.43-4.777-55.24-10.418 23.867-19.794 51.315-37.728 81.583-48.188 87.859-30.36 133.15 8.574 168.47 34.124 57.449 41.556 145.852-25.61 72.643-105.391z" fill="#f7e5c1"/></g></g><g><g><path d="m81.566 168.252c-24.586 31.136-.141 43.695 15.812 49.22-2.595-13.571-1.756-29.029 14.188-49.22 30.371-38.463 6.842-103.987-42.229-86.508 27.152 11.83 35.461 57.086 12.229 86.508z" fill="#f3d69e"/></g></g><g><g><path d="m469.255 206.849c-24.461-26.657-71.015-44.211-124.729-48.799 41.126 8.323 74.046 26.258 94.729 48.799 51.74 56.385 22.755 106.466-18.974 116.321 54.118 12.86 112.62-46.962 48.974-116.321z" fill="#f3d69e"/></g></g><g><g><path d="m201.799 336.722c-5.66-.243-11.504-.783-17.34-1.565v2.891c35.785 6.118 51.664 30.901 30.872 54.749-4.231 4.852-10.767 8.131-18.859 9.82 21.716 3.486 40.158.16 48.859-9.82 23.106-26.503.931-54.164-43.532-56.075z" fill="#f3d69e"/></g></g><g><g><path d="m70.32 210.882c-6.497 0-12.646-1.09-17.44-2.287-4.019-1.003-6.463-5.075-5.46-9.094s5.07-6.461 9.094-5.46c5.109 1.275 14.887 3.053 22.961.636 3.967-1.19 8.148 1.064 9.337 5.031 1.189 3.968-1.063 8.148-5.031 9.337-4.433 1.329-9.028 1.837-13.461 1.837z" fill="#efcb83"/></g></g><g fill="#efcb83"><path d="m354.356 254.025c-4.401-.87-8.665 1.994-9.533 6.391-1.297 6.573-2.055 12.666-2.496 17.758 5.532 2.384 10.77 5.041 15.758 7.862.227-5.294.874-13.417 2.661-22.478.868-4.397-1.993-8.666-6.39-9.533z"/><path d="m492.365 242.685c-1.96-5.199-4.578-10.535-7.922-15.974-28.879 2.063-53.327 16.354-71.371 41.943-11.473 16.269-17.365 32.879-19.818 41.14 1.13.826 2.249 1.642 3.359 2.445 3.573 2.584 7.265 4.747 11.03 6.514.01-.042.024-.081.033-.122.047-.211 4.873-21.261 18.944-41.024 16.654-23.389 38.749-35.107 65.745-34.922z"/><path d="m358.921 238.964c1.436.634 2.957.818 4.405.614 2.686-.38 5.12-2.096 6.296-4.76 12.587-28.513 33.697-45.598 62.742-50.779 1.399-.25 2.648-.846 3.678-1.681-7.119-3.701-14.823-7.037-23.021-9.983-26.063 9.135-46.019 28.19-58.247 55.889-1.81 4.099.046 8.89 4.147 10.7z"/><path d="m130.057 252.616c.675 0 1.361-.085 2.045-.262 4.338-1.126 6.942-5.555 5.816-9.894-3.653-14.077-2.475-25.973-1.493-31.654-5.933 4.199-11.676 8.594-17.227 13.143.073 6.549.847 14.251 3.011 22.588.948 3.656 4.241 6.079 7.848 6.079z"/><path d="m247.913 270.722c-23.388-14.28-36.738-34.651-39.68-60.547-2.245-19.761 2.643-35.611 2.735-35.904.095-.296.167-.593.227-.89-6.107 2.011-12.155 4.222-18.132 6.624-1.303 7.627-2.381 18.72-1.032 31.318 2.076 19.39 10.433 45.723 37.379 66.367 6.922-2.35 13.578-4.269 19.985-5.797-.439-.436-.93-.834-1.482-1.171z"/><path d="m146.339 272.495c-3.469 2.838-3.98 7.951-1.143 11.42 7.214 8.817 16.34 16.494 27.191 22.898 5.074-3.453 10.271-6.762 15.588-9.891-.335-.24-.685-.464-1.064-.655-12.03-6.074-21.838-13.688-29.152-22.629-2.837-3.47-7.951-3.981-11.42-1.143z"/><path d="m47.128 95.872c-3.804 3.807-7.221 8.181-10.196 13.048 4.202 4.762 10.707 10.904 19.595 15.867 11.483 6.412 23.14 8.853 34.237 8.853 12.509 0 24.298-3.108 34.328-7.125-.165-5.711-1.068-11.286-2.649-16.493-44.057 19.553-68.325-5.156-75.315-14.15z"/></g></g></svg>