<?xml version="1.0" encoding="iso-8859-1"?>
<!-- Generator: Adobe Illustrator 19.0.0, SVG Export Plug-In . SVG Version: 6.00 Build 0)  -->
<svg version="1.1" id="Layer_1" xmlns="http://www.w3.org/2000/svg" xmlns:xlink="http://www.w3.org/1999/xlink" x="0px" y="0px"
	 viewBox="0 0 460 460" style="enable-background:new 0 0 460 460;" xml:space="preserve">
<g id="XMLID_2906_">
	<path id="XMLID_244_" style="fill:#72503D;" d="M215.74,250h-73.673V30h14.538c15.789,0,29.151,11.082,31.285,25.947L215.74,250z"
		/>
	<path id="XMLID_2354_" style="fill:#AF6B38;" d="M160.486,5v45H150.44V5c0-2.761,2.239-5,5-5h0.046
		C158.247,0,160.486,2.239,160.486,5z"/>
	<path id="XMLID_2353_" style="fill:#AF6B38;" d="M376.481,260h0.093c11.046,0,20,8.954,20,20v130h-20.093V260z"/>
	<path id="XMLID_2351_" style="fill:#AF6B38;" d="M326.157,290v170h-40.093V290H326.157z"/>
	<path id="XMLID_1336_" style="fill:#604334;" d="M306.157,440v20h-30.139l10.046-20H306.157z"/>
	<path id="XMLID_853_" style="fill:#72503D;" d="M306.157,440l-10.046,20h30.139v-20H306.157z"/>
	<path id="XMLID_2352_" style="fill:#AF6B38;" d="M125.324,460h40.093V290h-40.093C125.324,290,125.324,460,125.324,460z"/>
	<path id="XMLID_2350_" style="fill:#604334;" d="M115.278,460h30.139v-20h-20.093L115.278,460z"/>
	<path id="XMLID_242_" style="fill:#72503D;" d="M145.416,440h20.093v20H135.37L145.416,440z"/>
	<path id="XMLID_238_" style="fill:#D7914F;" d="M396.573,280v20c0-11.046-8.996-20-20.093-20h-30.139v50v20
		c0,11.046-8.996,20-20.093,20v70h-20.093v-70v-40H185.602v20c0,11.046-8.996,20-20.093,20v70h-20.093v-70v-45.365
		c-12.008-6.917-20.093-19.833-20.093-34.635v-50V70H65.046C59.498,70,55,65.523,55,60v-3.82c0-3.788,2.15-7.25,5.553-8.944
		l50.482-25.124c2.79-1.389,5.866-2.111,8.985-2.111h5.303h5.023V5c0-2.923,2.521-5.261,5.517-4.977
		c2.612,0.248,4.53,2.58,4.53,5.191V20h-1.192c15.072,0,27.826,11.082,29.862,25.947l25.4,185.404
		c0.679,4.955,4.93,8.649,9.954,8.649h101.74c14.872,0,27.846,8.047,34.796,20h35.528C387.578,260,396.573,268.954,396.573,280z"/>
	<path id="XMLID_874_" style="fill:#9B5E35;" d="M145.416,344.635c-12.008-6.917-20.093-19.832-20.093-34.635v-20h20.093V344.635z"
		/>
	<path id="XMLID_2349_" style="fill:#9B5E35;" d="M306.157,320h-20.093v30h20.093V320z"/>
	<path id="XMLID_241_" style="fill:#C67F4A;" d="M346.342,310v20H165.509c-22.194,0-40.185-17.909-40.185-40v-4.635V270v-30V70
		c11.097,0,20.093,8.954,20.093,20v199.831c0,10.988,8.834,20.11,19.873,20.169c0.073,0,0.146,0,0.219,0H346.342z"/>
	<path id="XMLID_2319_" style="fill:#9B5C31;" d="M157.083,147.873c0.718,1.238,0.718,2.763,0,4L153.53,158
		c-0.718,1.238-2.044,2-3.48,2h-7.107c-1.436,0-2.762-0.762-3.48-2l-3.553-6.127c-0.718-1.237-0.718-2.762,0-4l3.553-6.126
		c0.718-1.238,2.045-2,3.48-2h7.107c1.436,0,2.762,0.762,3.48,2L157.083,147.873z"/>
	<path id="XMLID_2344_" style="fill:#9B5C31;" d="M181.509,262c-0.718-1.238-2.044-2-3.48-2h-7.107c-1.436,0-2.762,0.762-3.48,2
		l-3.554,6.127c-0.718,1.237-0.718,2.762,0,4l3.554,6.126c0.718,1.238,2.044,2,3.48,2h7.107c1.436,0,2.762-0.762,3.48-2l3.554-6.126
		c0.718-1.238,0.718-2.763,0-4L181.509,262z"/>
	<path id="XMLID_2321_" style="fill:#9B5C31;" d="M153.53,212c-0.718-1.238-2.044-2-3.48-2h-7.107c-1.436,0-2.762,0.762-3.48,2
		l-3.553,6.127c-0.718,1.237-0.718,2.762,0,4l3.553,6.126c0.718,1.238,2.045,2,3.48,2h7.107c1.436,0,2.762-0.762,3.48-2l3.554-6.126
		c0.718-1.238,0.718-2.763,0-4L153.53,212z"/>
	<path id="XMLID_240_" style="fill:#9B5C31;" d="M143.483,78.127L147.037,72c0.718-1.238,0.718-2.762,0-4l-3.554-6.127
		c-0.718-1.237-2.045-2-3.48-2h-7.107c-1.436,0-2.762,0.763-3.48,2L125.862,68c-0.718,1.238-0.718,2.762,0,4l3.554,6.127
		c0.718,1.237,2.044,2,3.48,2h7.107C141.439,80.127,142.766,79.364,143.483,78.127z"/>
	<path id="XMLID_2318_" style="fill:#9B5C31;" d="M170.047,110.253h7.107c0.254,0,0.502-0.032,0.746-0.078L175.137,90h-5.09
		c-1.436,0-2.762,0.762-3.48,2l-3.554,6.127c-0.718,1.237-0.718,2.762,0,4l3.554,6.126
		C167.285,109.491,168.612,110.253,170.047,110.253z"/>
	<path id="XMLID_2347_" style="fill:#9B5C31;" d="M274.085,301.747c-0.718-1.238-2.045-2-3.48-2h-7.107c-1.436,0-2.762,0.762-3.48,2
		l-3.554,6.126c-0.718,1.238-0.718,2.763,0,4l3.554,6.127c0.718,1.238,2.044,2,3.48,2h7.107c1.436,0,2.762-0.762,3.48-2l3.554-6.127
		c0.718-1.237,0.718-2.762,0-4L274.085,301.747z"/>
	<path id="XMLID_2320_" style="fill:#9B5C31;" d="M181.033,170c-1.436,0-2.762,0.762-3.48,2l-3.554,6.127
		c-0.718,1.237-0.718,2.762,0,4l3.554,6.126c0.718,1.238,2.045,2,3.48,2h7.107c0.254,0,0.502-0.032,0.746-0.078L186.123,170H181.033
		z"/>
	<path id="XMLID_2346_" style="fill:#9B5C31;" d="M307.778,268.127L304.224,262c-0.718-1.238-2.044-2-3.48-2h-7.107
		c-1.436,0-2.762,0.762-3.48,2l-3.554,6.127c-0.718,1.237-0.718,2.762,0,4l3.554,6.126c0.718,1.238,2.044,2,3.48,2h7.107
		c1.436,0,2.762-0.762,3.48-2l3.554-6.126C308.495,270.889,308.495,269.364,307.778,268.127z"/>
	<path id="XMLID_2348_" style="fill:#9B5C31;" d="M211.648,301.747c-0.718-1.238-2.044-2-3.48-2h-7.107c-1.436,0-2.762,0.762-3.48,2
		l-3.554,6.126c-0.718,1.238-0.718,2.763,0,4l3.554,6.127c0.718,1.238,2.044,2,3.48,2h7.107c1.436,0,2.762-0.762,3.48-2l3.554-6.127
		c0.718-1.237,0.718-2.762,0-4L211.648,301.747z"/>
	<path id="XMLID_2345_" style="fill:#9B5C31;" d="M242.867,262c-0.718-1.238-2.044-2-3.48-2h-7.107c-1.436,0-2.762,0.762-3.48,2
		l-3.554,6.127c-0.718,1.237-0.718,2.762,0,4l3.554,6.126c0.718,1.238,2.044,2,3.48,2h7.107c1.436,0,2.762-0.762,3.48-2l3.554-6.126
		c0.718-1.238,0.718-2.763,0-4L242.867,262z"/>
	<path id="XMLID_2315_" style="fill:#754626;" d="M142.942,210h2.474v20.253h-2.474c-1.436,0-2.762-0.762-3.48-2l-3.554-6.127
		c-0.718-1.237-0.718-2.762,0-4l3.554-6.126C140.18,210.762,141.507,210,142.942,210z"/>
	<path id="XMLID_460_" style="fill:#754626;" d="M142.329,79.381C138.774,73.752,132.496,70,125.324,70c0,0.69,0.179,1.381,0.538,2
		l3.554,6.127c0.718,1.237,2.044,2,3.48,2h7.107C140.852,80.127,141.659,79.854,142.329,79.381z"/>
	<path id="XMLID_506_" style="fill:#754626;" d="M139.462,141.747l-3.554,6.126c-0.718,1.238-0.718,2.763,0,4l3.554,6.127
		c0.718,1.238,2.044,2,3.48,2h2.474v-20.253h-2.474C141.507,139.747,140.18,140.509,139.462,141.747z"/>
	<path id="XMLID_2317_" style="fill:#754626;" d="M255.934,310c0.021,0.648,0.193,1.292,0.53,1.873l3.554,6.127
		c0.718,1.238,2.044,2,3.48,2h7.107c1.436,0,2.762-0.762,3.48-2l3.554-6.127c0.337-0.581,0.509-1.225,0.53-1.873H255.934z"/>
	<path id="XMLID_2316_" style="fill:#754626;" d="M194.027,311.873L197.58,318c0.718,1.238,2.045,2,3.48,2h7.107
		c1.436,0,2.762-0.762,3.48-2l3.554-6.127c0.337-0.581,0.509-1.225,0.53-1.873h-22.235
		C193.518,310.648,193.69,311.292,194.027,311.873z"/>
	<path id="XMLID_453_" style="fill:#604334;" d="M402.98,427.246l-9.183,18.282c-1.377,2.741-4.191,4.472-7.27,4.472l0,0
		c-3.078,0-5.893-1.731-7.27-4.472l-9.391-18.695c-6.177-12.297,2.768-26.759,16.555-26.833
		C400.325,399.926,409.198,414.867,402.98,427.246z"/>
	<path id="XMLID_239_" style="fill:#72503D;" d="M399.139,404.894l-9.017,17.951c-1.481,2.948-5.708,2.948-7.189,0l-9.017-17.951
		c3.25-2.997,7.612-4.894,12.612-4.894l0,0C391.527,400,395.889,401.897,399.139,404.894z"/>
	<path id="XMLID_30_" style="fill:#5B3C27;" d="M115.278,35c0,2.761-2.239,5-5,5h-0.046c-2.761,0-5-2.239-5-5s2.239-5,5-5h0.046
		C113.039,30,115.278,32.239,115.278,35z"/>
</g>
<g>
</g>
<g>
</g>
<g>
</g>
<g>
</g>
<g>
</g>
<g>
</g>
<g>
</g>
<g>
</g>
<g>
</g>
<g>
</g>
<g>
</g>
<g>
</g>
<g>
</g>
<g>
</g>
<g>
</g>
</svg>
