<?xml version="1.0" encoding="iso-8859-1"?>
<!-- Generator: Adobe Illustrator 19.0.0, SVG Export Plug-In . SVG Version: 6.00 Build 0)  -->
<svg version="1.1" id="Layer_1" xmlns="http://www.w3.org/2000/svg" xmlns:xlink="http://www.w3.org/1999/xlink" x="0px" y="0px"
	 viewBox="0 0 512.001 512.001" style="enable-background:new 0 0 512.001 512.001;" xml:space="preserve">
<path style="fill:#E3A55E;" d="M363.464,4.543L363.464,4.543c-39.141-14.055-82.423,6.351-96.48,45.49
	c-18.466,51.417-46.777,96.974-84.142,135.402c-36.665,37.706-80.412,66.913-130.029,86.811
	c-38.601,15.481-57.411,59.479-41.93,98.079c11.458,28.573,39.398,47.369,70.028,47.369c0.783,0,1.57-0.013,2.356-0.037
	c8.805-0.278,17.45-2.095,25.696-5.4c69.32-27.8,130.564-68.733,182.029-121.66c52.479-53.97,92.168-117.752,117.963-189.574
	C423.012,61.883,402.605,18.602,363.464,4.543z"/>
<path id="SVGCleanerId_0" style="fill:#F26D1F;" d="M386.384,38.298c-38.968-14.534-82.494,5.348-97.026,44.314
	c-20.025,53.694-50.66,100.699-91.055,139.71c-33.845,32.684-73.361,58.505-117.451,76.748c-38.43,15.9-56.759,60.101-40.859,98.531
	c11.714,28.312,39.081,46.606,69.72,46.606c9.898,0,19.591-1.934,28.809-5.747c61.668-25.513,117.037-61.724,164.568-107.624
	c56.719-54.774,99.651-120.553,127.607-195.51C445.229,96.357,425.351,52.832,386.384,38.298z"/>
<g>
	<path id="SVGCleanerId_0_1_" style="fill:#F26D1F;" d="M386.384,38.298c-38.968-14.534-82.494,5.348-97.026,44.314
		c-20.025,53.694-50.66,100.699-91.055,139.71c-33.845,32.684-73.361,58.505-117.451,76.748
		c-38.43,15.9-56.759,60.101-40.859,98.531c11.714,28.312,39.081,46.606,69.72,46.606c9.898,0,19.591-1.934,28.809-5.747
		c61.668-25.513,117.037-61.724,164.568-107.624c56.719-54.774,99.651-120.553,127.607-195.51
		C445.229,96.357,425.351,52.832,386.384,38.298z"/>
</g>
<g>
	<path style="fill:#E3451E;" d="M220.606,234.141c1.721,0,3.455-0.564,4.903-1.722c3.389-2.71,3.938-7.655,1.227-11.043
		l-12.412-15.514c-3.563,3.891-7.215,7.711-10.953,11.461l11.095,13.869C216.018,233.132,218.3,234.141,220.606,234.141z"/>
	<path style="fill:#E3451E;" d="M262.496,192.24c2.728,0,5.378-1.423,6.829-3.96c2.153-3.768,0.844-8.567-2.924-10.72
		l-20.293-11.596c-2.991,4.339-6.072,8.611-9.244,12.816l21.741,12.423C259.834,191.905,261.174,192.24,262.496,192.24z"/>
	<path style="fill:#E3451E;" d="M174.514,271.854c1.181,0,2.379-0.267,3.507-0.831c3.881-1.94,5.455-6.659,3.514-10.541
		l-8.107-16.215c-4.156,3.352-8.385,6.607-12.68,9.776l6.733,13.466C168.857,270.263,171.631,271.854,174.514,271.854z"/>
	<path style="fill:#E3451E;" d="M422.943,67.623c-38.968-14.534-82.494,5.348-97.026,44.314
		c-20.025,53.694-50.66,100.699-91.055,139.71c-33.845,32.684-73.361,58.505-117.451,76.748
		c-38.43,15.9-56.759,60.101-40.859,98.531c11.714,28.312,39.081,46.606,69.72,46.606c9.898,0,19.591-1.934,28.809-5.747
		c61.668-25.513,117.037-61.724,164.568-107.624c56.719-54.774,99.651-120.553,127.607-195.51
		C481.789,125.682,461.91,82.156,422.943,67.623z"/>
</g>
<path style="fill:#E3A55E;" d="M496.469,32.752c-11.405-16.608-28.593-27.781-48.402-31.46c-19.804-3.682-39.861,0.573-56.47,11.978
	s-27.782,28.594-31.461,48.402c-8.262,44.473-33.351,129.925-108.561,202.554c-69.122,66.752-147.802,90.274-188.55,98.355
	c-40.794,8.09-67.402,47.86-59.313,88.655c6.983,35.211,38.066,60.766,73.912,60.766c4.919,0,9.88-0.489,14.743-1.454
	c37.821-7.5,75.137-19.307,110.913-35.093c57.087-25.192,108.591-59.751,153.083-102.717
	c105.41-101.794,140.529-221.324,152.083-283.514C512.127,69.415,507.873,49.36,496.469,32.752z"/>
<g>
	<path style="fill:#FCD110;" d="M129.463,418.512h-1.048c-4.339,0-7.857-3.518-7.857-7.857s3.518-7.857,7.857-7.857h1.048
		c4.339,0,7.857,3.518,7.857,7.857S133.802,418.512,129.463,418.512z"/>
	<path style="fill:#FCD110;" d="M213.268,372.419h-1.048c-4.339,0-7.857-3.518-7.857-7.857c0-4.339,3.518-7.857,7.857-7.857h1.048
		c4.339,0,7.857,3.518,7.857,7.857C221.125,368.902,217.607,372.419,213.268,372.419z"/>
	<path style="fill:#FCD110;" d="M183.936,435.273h-1.048c-4.339,0-7.857-3.518-7.857-7.857s3.518-7.857,7.857-7.857h1.048
		c4.339,0,7.857,3.518,7.857,7.857S188.275,435.273,183.936,435.273z"/>
	<path style="fill:#FCD110;" d="M313.834,355.658h-1.048c-4.339,0-7.857-3.518-7.857-7.857c0-4.339,3.518-7.857,7.857-7.857h1.048
		c4.339,0,7.857,3.518,7.857,7.857C321.69,352.141,318.173,355.658,313.834,355.658z"/>
	<path style="fill:#FCD110;" d="M284.502,305.375h-1.048c-4.339,0-7.857-3.518-7.857-7.857c0-4.339,3.518-7.857,7.857-7.857h1.048
		c4.339,0,7.857,3.518,7.857,7.857C292.359,301.858,288.841,305.375,284.502,305.375z"/>
	<path style="fill:#FCD110;" d="M385.068,229.951h-1.048c-4.339,0-7.857-3.518-7.857-7.857c0-4.339,3.518-7.857,7.857-7.857h1.048
		c4.339,0,7.857,3.518,7.857,7.857C392.925,226.433,389.407,229.951,385.068,229.951z"/>
	<path style="fill:#FCD110;" d="M347.356,292.805h-1.048c-4.339,0-7.857-3.518-7.857-7.857c0-4.339,3.518-7.857,7.857-7.857h1.048
		c4.339,0,7.857,3.518,7.857,7.857C355.212,289.287,351.695,292.805,347.356,292.805z"/>
	<path style="fill:#FCD110;" d="M439.541,179.668h-1.048c-4.339,0-7.857-3.518-7.857-7.857s3.518-7.857,7.857-7.857h1.048
		c4.339,0,7.857,3.518,7.857,7.857S443.88,179.668,439.541,179.668z"/>
	<path style="fill:#FCD110;" d="M393.448,129.385h-1.048c-4.339,0-7.857-3.518-7.857-7.857s3.518-7.857,7.857-7.857h1.048
		c4.339,0,7.857,3.518,7.857,7.857S397.787,129.385,393.448,129.385z"/>
</g>
<g>
</g>
<g>
</g>
<g>
</g>
<g>
</g>
<g>
</g>
<g>
</g>
<g>
</g>
<g>
</g>
<g>
</g>
<g>
</g>
<g>
</g>
<g>
</g>
<g>
</g>
<g>
</g>
<g>
</g>
</svg>
