<svg id="Capa_1" enable-background="new 0 0 504.5 504.5" height="512" viewBox="0 0 504.5 504.5" width="512" xmlns="http://www.w3.org/2000/svg"><g><g><path d="m252.25 64.7c-4.142 0-7.5-3.358-7.5-7.5v-33.134c0-13.27 10.796-24.066 24.066-24.066h8.284c4.142 0 7.5 3.358 7.5 7.5s-3.358 7.5-7.5 7.5h-8.284c-4.999 0-9.066 4.067-9.066 9.066v33.134c0 4.142-3.358 7.5-7.5 7.5z" fill="#5e5161"/></g><g><path d="m401.35 239.433c9.149 0 16.567 7.417 16.567 16.567v16.567c0 9.149-7.417 16.567-16.567 16.567v5h-298.2v-5c-9.15 0-16.567-7.417-16.567-16.567v-16.567c0-9.15 7.417-16.567 16.567-16.567v-5h298.2z" fill="#ffc269"/><path d="m401.35 239.433v-5h-23v5c9.15 0 16.567 7.417 16.567 16.567v16.567c0 9.149-7.417 16.567-16.567 16.567v5h23v-5c9.149 0 16.567-7.417 16.567-16.567v-16.567c0-9.15-7.418-16.567-16.567-16.567z" fill="#faa75d"/><path d="m401.35 338.835c9.149 0 16.567 7.417 16.567 16.567v16.567c0 9.15-7.417 16.567-16.567 16.567v5h-298.2v-5c-9.15 0-16.567-7.417-16.567-16.567v-16.567c0-9.15 7.417-16.567 16.567-16.567v-5h298.2z" fill="#ffc269"/><path d="m401.35 338.835v-5h-23v5c9.15 0 16.567 7.417 16.567 16.567v16.567c0 9.15-7.417 16.567-16.567 16.567v5h23v-5c9.149 0 16.567-7.417 16.567-16.567v-16.567c0-9.15-7.418-16.567-16.567-16.567z" fill="#faa75d"/><path d="m219.116 239.433h-115.966c-9.15 0-16.567-7.417-16.567-16.567v-33.133c0-9.15 7.417-16.567 16.567-16.567h298.2c9.149 0 16.567 7.417 16.567 16.567v33.133c0 9.15-7.417 16.567-16.567 16.567h-16.567z" fill="#f4dbb3"/><path d="m401.35 173.167h-23c9.15 0 16.567 7.417 16.567 16.567v33.133c0 9.149-7.417 16.567-16.567 16.567h6.433 16.567c9.149 0 16.567-7.417 16.567-16.567v-33.133c0-9.15-7.418-16.567-16.567-16.567z" fill="#eac89f"/><g><path d="m219.116 338.833h-115.966c-9.15 0-16.567-7.417-16.567-16.567v-16.566c0-9.15 7.417-16.567 16.567-16.567h298.2c9.149 0 16.567 7.417 16.567 16.567v16.566c0 9.149-7.417 16.567-16.567 16.567h-16.567z" fill="#f4dbb3"/><path d="m401.35 289.133h-23c9.15 0 16.567 7.417 16.567 16.567v16.566c0 9.149-7.417 16.567-16.567 16.567h6.433 16.567c9.149 0 16.567-7.417 16.567-16.567v-16.566c0-9.15-7.418-16.567-16.567-16.567z" fill="#eac89f"/></g><g><path d="m103.15 443.233v-5c-9.15 0-16.567-7.417-16.567-16.567v-16.566c0-9.15 7.417-16.567 16.567-16.567h298.2c9.149 0 16.567 7.417 16.567 16.567v16.566c0 9.15-7.417 16.567-16.567 16.567v5z" fill="#f4dbb3"/><path d="m401.35 388.533h-23c9.15 0 16.567 7.417 16.567 16.567v16.566c0 9.149-7.417 16.567-16.567 16.567h6.433 16.567c9.149 0 16.567-7.417 16.567-16.567v-16.566c0-9.15-7.418-16.567-16.567-16.567z" fill="#eac89f"/></g><g><path d="m318.517 178.167h-132.534v-46.7c0-4.418 3.582-8 8-8h116.533c4.418 0 8 3.582 8 8v46.7z" fill="#f4dbb3"/><g><g><path d="m252.25 185.753c-4.142 0-7.5-3.358-7.5-7.5v-29.936c0-4.142 3.358-7.5 7.5-7.5s7.5 3.358 7.5 7.5v29.936c0 4.142-3.358 7.5-7.5 7.5z" fill="#eac89f"/></g></g><path d="m310.517 123.467h-22.895c4.418 0 8 3.582 8 8v46.7h22.895v-46.7c0-4.419-3.582-8-8-8z" fill="#eac89f"/></g><ellipse cx="252.25" cy="90.333" fill="#e55964" rx="33.133" ry="33.133" transform="matrix(.17 -.986 .986 .17 120.416 323.593)"/><path d="m417.917 189.733c0-9.15-7.417-16.567-16.567-16.567h-298.2c-9.15 0-16.567 7.417-16.567 16.567v8.567c0 4.418 3.582 8 8 8h107.967c9.149 0 16.567 7.417 16.567 16.567v49.266c0 9.286 7.599 17.172 16.883 16.998 9.003-.169 16.25-7.52 16.25-16.564v-16.133c0-9.286 7.599-17.172 16.883-16.998 9.004.169 16.25 7.52 16.25 16.564v82.399c0 9.286 7.599 17.172 16.883 16.998 9.004-.169 16.25-7.52 16.25-16.564v-98.966c0-9.286 7.599-17.172 16.883-16.998 9.003.169 16.25 7.52 16.25 16.564v49.266c0 9.286 7.599 17.172 16.883 16.998 9.003-.169 16.25-7.52 16.25-16.564v-66.267c0-9.15 7.417-16.567 16.567-16.567h8.567c4.418 0 8-3.582 8-8v-8.566z" fill="#966a5b"/><g fill="#8a5a51"><path d="m246.133 239.436c-9.284-.174-16.883 7.712-16.883 16.998v16.133c0 4.626-1.904 8.802-4.962 11.807 3.042 2.991 7.172 4.841 11.712 4.756 9.003-.169 16.25-7.52 16.25-16.564v-16.133c0-4.745 1.992-9.116 5.171-12.242-2.919-2.868-6.89-4.672-11.288-4.755z"/><path d="m401.35 173.167h-23c9.15 0 16.567 7.417 16.567 16.567v8.567c0 4.418-3.582 8-8 8h-8.567c-9.15 0-16.567 7.417-16.567 16.567v66.267c0 4.626-1.904 8.802-4.962 11.807 3.043 2.991 7.172 4.841 11.712 4.756 9.003-.169 16.25-7.52 16.25-16.564v-66.267c0-9.15 7.417-16.567 16.567-16.567h8.567c4.418 0 8-3.582 8-8v-8.567c0-9.149-7.418-16.566-16.567-16.566z"/><path d="m312.4 222.87c-9.284-.174-16.883 7.712-16.883 16.998v98.966c0 4.626-1.904 8.802-4.962 11.808 3.043 2.991 7.172 4.841 11.712 4.756 9.004-.169 16.25-7.52 16.25-16.564v-98.966c0-4.745 1.992-9.116 5.171-12.242-2.92-2.87-6.891-4.674-11.288-4.756z"/></g><g><path d="m417.917 471.367c0 18.299-14.834 33.133-33.133 33.133h-265.067c-18.299 0-33.133-14.834-33.133-33.133v-5.617h331.333z" fill="#d6e0ff"/><path d="m394.917 465.75v5.617c0 18.299-14.834 33.133-33.133 33.133h23c18.299 0 33.133-14.834 33.133-33.133v-5.617z" fill="#c2d1ff"/><path d="m467.617 471.367c9.15 0 16.567-7.417 16.567-16.567 0-9.149-7.417-16.567-16.567-16.567h-430.734c-9.149 0-16.567 7.417-16.567 16.567s7.417 16.567 16.567 16.567z" fill="#edf4ff"/><path d="m467.617 438.233h-23c9.149 0 16.567 7.417 16.567 16.567s-7.417 16.567-16.567 16.567h23c9.149 0 16.567-7.417 16.567-16.567-.001-9.15-7.418-16.567-16.567-16.567z" fill="#d6e0ff"/></g><path d="m252.25 57.2c-4.044 0-7.917.727-11.5 2.053 12.63 4.675 21.633 16.825 21.633 31.08s-9.004 26.406-21.633 31.08c3.583 1.326 7.456 2.053 11.5 2.053 18.299 0 33.133-14.834 33.133-33.133s-14.834-33.133-33.133-33.133z" fill="#db404f"/></g><circle cx="86.583" cy="405.1" fill="#e55964" r="33.133"/><path d="m86.583 371.967c-4.044 0-7.917.727-11.5 2.053 12.63 4.675 21.633 16.825 21.633 31.081 0 14.255-9.004 26.405-21.633 31.08 3.583 1.326 7.456 2.053 11.5 2.053 18.299 0 33.133-14.835 33.133-33.133.001-18.3-14.834-33.134-33.133-33.134z" fill="#db404f"/><circle cx="252.25" cy="405.1" fill="#e55964" r="33.133"/><path d="m252.25 371.967c-4.044 0-7.917.727-11.5 2.053 12.63 4.675 21.633 16.825 21.633 31.081 0 14.255-9.003 26.405-21.633 31.08 3.583 1.326 7.456 2.053 11.5 2.053 18.299 0 33.133-14.835 33.133-33.133 0-18.3-14.834-33.134-33.133-33.134z" fill="#db404f"/><circle cx="417.917" cy="405.1" fill="#e55964" r="33.133"/><path d="m417.917 371.967c-4.044 0-7.917.727-11.5 2.053 12.63 4.675 21.633 16.825 21.633 31.081 0 14.255-9.004 26.405-21.633 31.08 3.583 1.326 7.456 2.053 11.5 2.053 18.299 0 33.133-14.835 33.133-33.133 0-18.3-14.834-33.134-33.133-33.134z" fill="#db404f"/></g></svg>