<?xml version="1.0" encoding="iso-8859-1"?>
<!-- Generator: Adobe Illustrator 19.0.0, SVG Export Plug-In . SVG Version: 6.00 Build 0)  -->
<svg version="1.1" id="Capa_1" xmlns="http://www.w3.org/2000/svg" xmlns:xlink="http://www.w3.org/1999/xlink" x="0px" y="0px"
	 viewBox="0 0 512 512" style="enable-background:new 0 0 512 512;" xml:space="preserve">
<path style="fill:#E6595A;" d="M147.148,287.282c-53.782,0-97.537-43.756-97.537-97.538v-9.45c0-7.66,6.21-13.869,13.869-13.869
	c7.66,0,13.869,6.209,13.869,13.869v9.45c0,38.488,31.313,69.801,69.799,69.801c7.66,0,13.869,6.21,13.869,13.869
	C161.016,281.073,154.807,287.282,147.148,287.282z"/>
<path style="opacity:0.1;enable-background:new    ;" d="M77.348,189.744v-9.45c0-7.66-6.209-13.869-13.869-13.869
	s-13.869,6.209-13.869,13.869v9.45c0,23.32,8.23,44.75,21.932,61.551c2.424-0.39,4.856-0.915,7.291-1.598
	c7.157-2.007,13.461-5.769,18.763-10.849C85.09,226.229,77.348,208.875,77.348,189.744z"/>
<path style="opacity:0.05;enable-background:new    ;" d="M147.148,259.545c-9.22,0-18.021-1.814-26.086-5.077
	c-1.759,5.451-2.688,11.101-2.688,16.891c0,4.074,0.465,8.077,1.348,11.991c8.703,2.554,17.906,3.931,27.426,3.931
	c7.66,0,13.869-6.209,13.869-13.869C161.016,265.754,154.807,259.545,147.148,259.545z"/>
<g>
	<path style="fill:#E6595A;" d="M170.464,412.349c-7.66,0-13.869-6.209-13.869-13.869c0-17.352,9.608-36.758,25.701-51.909
		c17.88-16.833,41.261-26.105,65.834-26.105c7.659,0,13.87,6.21,13.87,13.869c0,7.66-6.21,13.869-13.87,13.869
		c-39.575,0-63.796,32.551-63.796,50.276C184.334,406.14,178.124,412.349,170.464,412.349z"/>
	<path style="fill:#E6595A;" d="M121.612,388.638c-7.659,0-13.869-6.209-13.869-13.869c0-17.352,9.608-36.758,25.701-51.909
		c17.88-16.833,41.26-26.104,65.832-26.104c7.66,0,13.869,6.209,13.869,13.869s-6.21,13.869-13.869,13.869
		c-39.575,0-63.796,32.551-63.796,50.276C135.481,382.429,129.272,388.638,121.612,388.638z"/>
</g>
<path style="opacity:0.1;enable-background:new    ;" d="M199.278,296.755c-24.573,0-47.952,9.27-65.833,26.104
	c-0.951,0.895-1.875,1.808-2.78,2.731c5.876,6.562,13.114,12.546,21.463,17.797c11.015-10.543,27.108-18.894,47.149-18.894
	c7.66,0,13.869-6.209,13.869-13.869C213.147,302.965,206.937,296.755,199.278,296.755z"/>
<path style="opacity:0.1;enable-background:new    ;" d="M248.13,320.466c-24.573,0-47.952,9.272-65.834,26.105
	c-2.749,2.588-5.294,5.309-7.649,8.114c9.445,3.722,19.7,6.664,30.552,8.696c10.75-8.721,25.313-15.177,42.93-15.177
	c7.659,0,13.87-6.209,13.87-13.869C262,326.676,255.789,320.466,248.13,320.466z"/>
<path style="fill:#E6595A;" d="M364.852,287.282c53.782,0,97.537-43.756,97.537-97.538v-9.45c0-7.66-6.21-13.869-13.869-13.869
	c-7.66,0-13.869,6.209-13.869,13.869v9.45c0,38.488-31.313,69.801-69.799,69.801c-7.66,0-13.869,6.21-13.869,13.869
	C350.984,281.073,357.194,287.282,364.852,287.282z"/>
<path style="opacity:0.1;enable-background:new    ;" d="M434.652,189.744v-9.45c0-7.66,6.209-13.869,13.869-13.869
	c7.66,0,13.869,6.209,13.869,13.869v9.45c0,23.32-8.23,44.75-21.932,61.551c-2.424-0.39-4.856-0.915-7.291-1.598
	c-7.157-2.007-13.461-5.769-18.763-10.849C426.912,226.229,434.652,208.875,434.652,189.744z"/>
<path style="opacity:0.05;enable-background:new    ;" d="M364.852,259.545c9.22,0,18.021-1.814,26.086-5.077
	c1.759,5.451,2.688,11.101,2.688,16.891c0,4.074-0.465,8.077-1.348,11.991c-8.703,2.554-17.906,3.931-27.426,3.931
	c-7.66,0-13.869-6.209-13.869-13.869C350.984,265.754,357.194,259.545,364.852,259.545z"/>
<g>
	<path style="fill:#E6595A;" d="M341.536,412.349c7.66,0,13.869-6.209,13.869-13.869c0-17.352-9.608-36.758-25.701-51.909
		c-17.88-16.833-41.261-26.105-65.834-26.105c-7.659,0-13.87,6.21-13.87,13.869c0,7.66,6.21,13.869,13.87,13.869
		c39.575,0,63.796,32.551,63.796,50.276C327.667,406.14,333.876,412.349,341.536,412.349z"/>
	<path style="fill:#E6595A;" d="M390.388,388.638c7.66,0,13.869-6.209,13.869-13.869c0-17.352-9.608-36.758-25.701-51.909
		c-17.88-16.833-41.26-26.104-65.834-26.104c-7.66,0-13.869,6.209-13.869,13.869s6.21,13.869,13.869,13.869
		c39.575,0,63.796,32.551,63.796,50.276C376.519,382.429,382.728,388.638,390.388,388.638z"/>
</g>
<path style="opacity:0.1;enable-background:new    ;" d="M312.723,296.755c24.573,0,47.952,9.27,65.834,26.104
	c0.951,0.895,1.875,1.808,2.78,2.731c-5.876,6.562-13.114,12.546-21.463,17.797c-11.015-10.543-27.108-18.894-47.15-18.894
	c-7.66,0-13.869-6.209-13.869-13.869C298.853,302.965,305.063,296.755,312.723,296.755z"/>
<path style="opacity:0.1;enable-background:new    ;" d="M263.87,320.466c24.573,0,47.952,9.272,65.834,26.105
	c2.749,2.588,5.294,5.309,7.649,8.114c-9.445,3.722-19.7,6.664-30.552,8.696c-10.75-8.721-25.314-15.177-42.93-15.177
	c-7.659,0-13.87-6.209-13.87-13.869C250.001,326.676,256.211,320.466,263.87,320.466z"/>
<ellipse style="fill:#E6595A;" cx="255.999" cy="271.356" rx="126.9" ry="82.191"/>
<path style="fill:#E9D286;" d="M256,309.663c-38.664,0-72.668,7.202-92.306,18.092c23.138,15.88,55.933,25.794,92.306,25.794
	s69.168-9.914,92.306-25.794C328.668,316.864,294.664,309.663,256,309.663z"/>
<g>
	<path style="fill:#394049;" d="M185.981,257.983c-4.508,0-8.163-3.655-8.163-8.163v-3.286c0-4.508,3.655-8.163,8.163-8.163
		c4.508,0,8.163,3.655,8.163,8.163v3.286C194.143,254.33,190.489,257.983,185.981,257.983z"/>
	<path style="fill:#394049;" d="M326.026,257.983c-4.509,0-8.163-3.655-8.163-8.163v-3.286c0-4.508,3.654-8.163,8.163-8.163
		c4.509,0,8.163,3.655,8.163,8.163v3.286C334.188,254.33,330.535,257.983,326.026,257.983z"/>
	<path style="fill:#394049;" d="M267.762,274.865c-4.394,0-8.46-1.43-11.758-3.849c-3.298,2.419-7.365,3.849-11.758,3.849
		c-10.985,0-19.921-8.936-19.921-19.921c0-4.508,3.655-8.163,8.163-8.163c4.508,0,8.163,3.655,8.163,8.163
		c0,1.983,1.613,3.596,3.596,3.596c1.983,0,3.596-1.613,3.596-3.596c0-4.508,3.655-8.163,8.163-8.163
		c4.509,0,8.163,3.655,8.163,8.163c0,1.983,1.613,3.596,3.596,3.596c1.983,0,3.597-1.613,3.597-3.596
		c0-4.508,3.654-8.163,8.163-8.163s8.163,3.655,8.163,8.163C287.683,265.929,278.746,274.865,267.762,274.865z"/>
</g>
<g>
	<path style="fill:#FFFFFF;" d="M196.001,281.576H175.96c-4.508,0-8.163-3.655-8.163-8.163s3.655-8.163,8.163-8.163h20.041
		c4.508,0,8.163,3.655,8.163,8.163S200.509,281.576,196.001,281.576z"/>
	<path style="fill:#FFFFFF;" d="M336.046,281.576h-20.04c-4.508,0-8.163-3.655-8.163-8.163s3.655-8.163,8.163-8.163h20.04
		c4.509,0,8.163,3.655,8.163,8.163S340.555,281.576,336.046,281.576z"/>
</g>
<path style="fill:#E6595A;" d="M3.463,185.721c14.098,50.289,43.369,62.812,72.831,54.554c29.461-8.259,44.619-46.075,33.857-84.464
	c-10.763-38.388-43.369-62.813-72.831-54.554C7.859,109.517-7.298,147.333,3.463,185.721z"/>
<path style="opacity:0.1;enable-background:new    ;" d="M64.667,168.563L45.392,99.812c-2.703,0.225-5.401,0.698-8.072,1.446
	c-2.671,0.749-5.22,1.748-7.648,2.96l19.274,68.751c1.01,3.604,4.287,5.961,7.856,5.961c0.729,0,1.471-0.099,2.207-0.305
	C63.351,177.409,65.884,172.903,64.667,168.563z"/>
<path style="fill:#E6595A;" d="M508.537,185.721c-14.098,50.289-43.369,62.812-72.831,54.554
	c-29.461-8.259-44.619-46.075-33.857-84.464c10.763-38.388,43.369-62.813,72.831-54.554
	C504.141,109.517,519.299,147.333,508.537,185.721z"/>
<path style="opacity:0.1;enable-background:new    ;" d="M474.68,101.258c-2.671-0.749-5.369-1.221-8.072-1.446l-19.273,68.751
	c-1.217,4.34,1.316,8.846,5.656,10.063c0.737,0.207,1.478,0.305,2.207,0.305c3.568,0,6.845-2.357,7.856-5.961l19.273-68.751
	C479.899,103.005,477.351,102.007,474.68,101.258z"/>
<g>
</g>
<g>
</g>
<g>
</g>
<g>
</g>
<g>
</g>
<g>
</g>
<g>
</g>
<g>
</g>
<g>
</g>
<g>
</g>
<g>
</g>
<g>
</g>
<g>
</g>
<g>
</g>
<g>
</g>
</svg>
