<?xml version="1.0" encoding="iso-8859-1"?>
<!-- Generator: Adobe Illustrator 19.0.0, SVG Export Plug-In . SVG Version: 6.00 Build 0)  -->
<svg version="1.1" id="Capa_1" xmlns="http://www.w3.org/2000/svg" xmlns:xlink="http://www.w3.org/1999/xlink" x="0px" y="0px"
	 viewBox="0 0 512 512" style="enable-background:new 0 0 512 512;" xml:space="preserve">
<g>
	<path style="fill:#F09D2D;" d="M50.909,438.585c-4.275-1.556-8.035-4.592-10.436-8.871c-11.722-20.901-13.745-45.804-5.548-68.322
		c8.196-22.518,25.751-40.295,48.167-48.773c11.671-4.413,20.813-13.671,25.081-25.396c4.268-11.725,3.215-24.692-2.888-35.576
		c-11.722-20.902-13.744-45.805-5.548-68.323s25.752-40.294,48.166-48.77c10.175-3.846,21.546,1.281,25.393,11.458
		c3.847,10.175-1.281,21.545-11.458,25.393c-11.671,4.413-20.812,13.67-25.08,25.395c-4.268,11.726-3.215,24.694,2.888,35.577
		c11.722,20.901,13.745,45.804,5.549,68.322c-8.196,22.518-25.751,40.295-48.167,48.773c-11.671,4.413-20.813,13.671-25.081,25.396
		c-4.268,11.725-3.215,24.692,2.888,35.576c5.322,9.489,1.944,21.496-7.545,26.816C62.08,440.178,56.112,440.479,50.909,438.585z"/>
	<path style="fill:#F09D2D;" d="M162.719,443.347c-5.204-1.894-9.584-5.959-11.696-11.546c-3.849-10.177,1.282-21.544,11.457-25.393
		c11.671-4.413,20.813-13.67,25.081-25.395c4.268-11.726,3.214-24.694-2.889-35.576c-11.722-20.902-13.744-45.804-5.547-68.323
		c8.196-22.518,25.751-40.294,48.167-48.771c11.671-4.413,20.813-13.671,25.081-25.396c4.268-11.725,3.214-24.694-2.889-35.576
		c-5.322-9.489-1.943-21.496,7.545-26.816c9.488-5.32,21.497-1.943,26.816,7.545c11.722,20.901,13.745,45.804,5.549,68.322
		c-8.197,22.519-25.753,40.296-48.168,48.773c-11.671,4.413-20.812,13.671-25.08,25.396c-4.268,11.725-3.215,24.691,2.889,35.574
		c11.722,20.902,13.744,45.805,5.548,68.324c-8.196,22.518-25.752,40.294-48.167,48.77
		C171.827,444.994,166.995,444.903,162.719,443.347z"/>
	<path style="fill:#F09D2D;" d="M249.347,510.81c-5.204-1.894-9.583-5.958-11.696-11.547c-3.847-10.175,1.281-21.545,11.458-25.393
		c11.671-4.413,20.813-13.671,25.081-25.395c4.268-11.726,3.214-24.695-2.889-35.577c-11.722-20.901-13.745-45.804-5.549-68.322
		c8.196-22.519,25.752-40.296,48.168-48.773c11.671-4.413,20.813-13.67,25.081-25.395c4.268-11.726,3.214-24.692-2.889-35.576
		c-5.321-9.489-1.944-21.494,7.545-26.818c9.488-5.32,21.494-1.945,26.816,7.545c11.722,20.901,13.745,45.803,5.549,68.322
		c-8.196,22.519-25.752,40.295-48.167,48.771c-11.671,4.414-20.813,13.671-25.081,25.396c-4.268,11.725-3.214,24.694,2.889,35.576
		c11.722,20.901,13.745,45.804,5.548,68.323c-8.196,22.518-25.752,40.295-48.167,48.771
		C258.454,512.457,253.622,512.366,249.347,510.81z"/>
</g>
<path style="opacity:0.15;enable-background:new    ;" d="M173.295,146.01c-3.847-10.176-15.218-15.305-25.393-11.458
	c-22.413,8.476-39.97,26.252-48.166,48.77c-2.424,6.659-3.947,13.527-4.596,20.438l39.579,14.405
	c-1.131-7.1-0.48-14.45,2.039-21.369c4.268-11.725,13.409-20.981,25.08-25.395C172.013,167.554,177.142,156.184,173.295,146.01z"/>
<path style="opacity:0.15;enable-background:new    ;" d="M283.845,148.099c-5.32-9.487-17.328-12.865-26.816-7.545
	c-9.488,5.321-12.866,17.327-7.545,26.816c6.104,10.883,7.157,23.851,2.889,35.576c-4.268,11.726-13.41,20.984-25.081,25.396
	c-9.082,3.435-17.365,8.397-24.552,14.581l48.549,17.67c17.573-9.507,31.18-25.146,38.106-44.173
	C297.59,193.902,295.567,168.999,283.845,148.099z"/>
<path style="opacity:0.15;enable-background:new    ;" d="M370.473,215.561c-5.323-9.489-17.328-12.865-26.816-7.545
	c-9.489,5.322-12.866,17.328-7.545,26.816c6.104,10.883,7.157,23.85,2.889,35.576c-2.518,6.919-6.743,12.967-12.174,17.679
	l39.58,14.406c3.944-5.712,7.192-11.952,9.616-18.61C384.218,261.364,382.195,236.462,370.473,215.561z"/>
<path style="fill:#F3C74F;" d="M417.069,294.256c29.548,10.755,61.287-9.413,64.066-40.735
	c9.102-102.588-51.106-202.51-152.474-239.405s-211.719,0.95-270.689,85.387c-18.005,25.781-6.655,61.631,22.894,72.386
	L417.069,294.256z"/>
<g>
	<path style="fill:#394049;" d="M215.971,88.076c-0.93,0-1.875-0.159-2.799-0.496c-4.248-1.547-6.439-6.244-4.892-10.492
		l1.339-3.678c1.546-4.247,6.243-6.436,10.492-4.892c4.248,1.547,6.439,6.244,4.892,10.492l-1.339,3.678
		C222.456,86.011,219.317,88.076,215.971,88.076z"/>
	<path style="fill:#394049;" d="M372.715,145.124c-0.93,0-1.875-0.159-2.799-0.496c-4.249-1.547-6.439-6.245-4.892-10.492
		l1.339-3.677c1.548-4.25,6.243-6.436,10.492-4.892c4.249,1.547,6.439,6.245,4.892,10.492l-1.339,3.677
		C379.197,143.061,376.058,145.124,372.715,145.124z"/>
	<path style="fill:#394049;" d="M305.43,141.138c-2.56,0-5.126-0.448-7.603-1.349c-4.985-1.815-8.927-5.241-11.453-9.479
		c-4.658,1.623-9.88,1.714-14.866-0.1c-5.571-2.027-10.019-6.102-12.524-11.475c-2.505-5.373-2.768-11.398-0.741-16.969
		c1.546-4.248,6.243-6.436,10.492-4.892c4.249,1.547,6.44,6.244,4.893,10.492c-1.098,3.016,0.463,6.361,3.477,7.458
		c3.019,1.101,6.36-0.463,7.457-3.477c1.546-4.247,6.239-6.441,10.491-4.893c3.324,1.208,5.389,4.346,5.39,7.689
		c0.001,0.931-0.158,1.877-0.496,2.802c-1.097,3.016,0.464,6.361,3.479,7.458c1.461,0.533,3.041,0.463,4.449-0.194
		c1.409-0.657,2.478-1.823,3.009-3.284c1.547-4.248,6.244-6.438,10.492-4.892c4.249,1.547,6.44,6.244,4.893,10.492
		c-2.028,5.57-6.102,10.018-11.475,12.522C311.813,140.439,308.627,141.138,305.43,141.138z"/>
</g>
<g>
	<path style="fill:#E6595A;" d="M217.576,118.562c-0.93,0-1.874-0.159-2.8-0.496l-22.43-8.163
		c-4.248-1.547-6.439-6.244-4.892-10.492c1.546-4.248,6.238-6.44,10.492-4.892l22.43,8.163c4.248,1.547,6.439,6.244,4.892,10.492
		C224.059,116.498,220.92,118.562,217.576,118.562z"/>
	<path style="fill:#E6595A;" d="M374.318,175.613c-0.93,0-1.874-0.158-2.799-0.496l-22.43-8.163
		c-4.248-1.547-6.439-6.244-4.892-10.492c1.546-4.248,6.238-6.442,10.492-4.892l22.43,8.164c4.248,1.547,6.439,6.244,4.892,10.492
		C380.803,173.547,377.663,175.613,374.318,175.613z"/>
</g>
<path style="opacity:0.1;enable-background:new    ;" d="M464.401,144.318c-16.406,4.621-30.431,16.788-36.705,34.027
	c-10.358,28.457,4.315,59.923,32.773,70.281c6.87,2.501,13.914,3.529,20.795,3.27C484.301,214.682,478.232,177.863,464.401,144.318z
	"/>
<path style="opacity:0.1;enable-background:new    ;" d="M79.892,74.23c-0.373-0.136-0.75-0.25-1.124-0.377
	c-7.478,7.985-14.436,16.546-20.795,25.65c-18.005,25.781-6.655,61.631,22.894,72.387l6.11,2.224
	c11.504-6.143,20.876-16.382,25.687-29.602C123.022,116.053,108.35,84.587,79.892,74.23z"/>
<path style="opacity:0.1;enable-background:new    ;" d="M244.342,0.059c-34.607,0.695-68.333,9.14-98.807,24.232
	c6.212,8.655,15,15.599,25.766,19.519c28.457,10.358,59.923-4.315,70.281-32.773C242.904,7.409,243.812,3.733,244.342,0.059z"/>
<g>
</g>
<g>
</g>
<g>
</g>
<g>
</g>
<g>
</g>
<g>
</g>
<g>
</g>
<g>
</g>
<g>
</g>
<g>
</g>
<g>
</g>
<g>
</g>
<g>
</g>
<g>
</g>
<g>
</g>
</svg>
