<?xml version="1.0" encoding="iso-8859-1"?>
<!-- Generator: Adobe Illustrator 19.0.0, SVG Export Plug-In . SVG Version: 6.00 Build 0)  -->
<svg version="1.1" id="Capa_1" xmlns="http://www.w3.org/2000/svg" xmlns:xlink="http://www.w3.org/1999/xlink" x="0px" y="0px"
	 viewBox="0 0 512 512" style="enable-background:new 0 0 512 512;" xml:space="preserve">
<path style="fill:#F0B0B7;" d="M160.216,416.892L37.51,415.983c-20.4-0.151-34.289-20.74-26.787-39.712l45.123-114.112
	c3.788-9.577,4.157-20.167,1.047-29.985L19.841,115.193C13.68,95.744,28.97,76.174,49.332,77.446l122.47,7.652
	c10.279,0.643,20.465-2.279,28.841-8.27l99.805-71.389c16.593-11.869,39.93-3.375,45.012,16.384l30.568,118.841
	c2.566,9.975,8.491,18.759,16.778,24.874l98.736,72.86c16.416,12.113,15.548,36.933-1.672,47.872l-103.579,65.795
	c-8.693,5.522-15.217,13.872-18.472,23.643l-38.783,116.419c-6.448,19.356-30.321,26.201-46.046,13.204l-94.582-78.177
	C180.471,420.592,170.513,416.968,160.216,416.892z"/>
<path style="opacity:0.3;fill:#E6595A;enable-background:new    ;" d="M170.421,287.536L10.036,395.717
	c1.697,5.309,4.898,10.055,9.185,13.618l160.385-108.181c3.76-2.536,4.752-7.641,2.216-11.401
	C179.286,285.992,174.181,284.999,170.421,287.536z M120.283,171.49c2.441,0,4.859-1.084,6.478-3.157
	c2.792-3.574,2.158-8.735-1.415-11.528L30.623,82.801c-4.525,3.256-8.048,7.766-10.113,12.943l94.721,74.004
	C116.734,170.922,118.515,171.49,120.283,171.49z M253.581,315.87c-4.359,1.251-6.881,5.798-5.631,10.159l53.325,185.965
	c5.574,0.026,11.076-1.552,15.789-4.528L263.738,321.5C262.49,317.141,257.944,314.617,253.581,315.87z M254.079,178.851
	c-1.551,4.262,0.646,8.975,4.908,10.527c0.929,0.337,1.876,0.497,2.809,0.497c3.354,0,6.504-2.072,7.719-5.406L334.587,5.686
	c-4.494-3.297-9.873-5.255-15.434-5.617L254.079,178.851z M502.432,254.525l-120.13-4.195c-4.49-0.138-8.335,3.388-8.494,7.921
	c-0.159,4.533,3.388,8.336,7.92,8.494l120.13,4.195C503.604,265.648,503.805,259.927,502.432,254.525z"/>
<g>
	<path style="fill:#394049;" d="M164.025,198.985c-0.933,0-1.881-0.16-2.809-0.498c-4.262-1.552-6.46-6.265-4.908-10.527
		l1.425-3.915c1.551-4.263,6.264-6.462,10.527-4.908c4.262,1.552,6.46,6.265,4.908,10.527l-1.425,3.915
		C170.529,196.915,167.379,198.985,164.025,198.985z"/>
	<path style="fill:#394049;" d="M330.837,259.7c-0.933,0-1.88-0.16-2.808-0.497c-4.263-1.551-6.46-6.264-4.909-10.527l1.425-3.914
		c1.551-4.262,6.261-6.46,10.525-4.909c4.263,1.552,6.46,6.264,4.909,10.527l-1.425,3.914
		C337.342,257.63,334.193,259.7,330.837,259.7z"/>
	<path style="fill:#394049;" d="M259.23,255.458c-2.666,0-5.339-0.468-7.92-1.406c-5.328-1.939-9.512-5.646-12.133-10.218
		c-5.121,1.891-10.691,1.911-15.878,0.023c-11.979-4.36-18.176-17.652-13.817-29.63c1.552-4.262,6.264-6.46,10.527-4.909
		c4.263,1.552,6.46,6.264,4.909,10.527c-1.261,3.468,0.532,7.316,4,8.577c1.678,0.611,3.495,0.532,5.116-0.223
		c1.62-0.756,2.849-2.097,3.46-3.776c1.551-4.263,6.264-6.462,10.527-4.909c3.334,1.213,5.405,4.361,5.406,7.714
		c0.001,0.934-0.159,1.883-0.497,2.811c-0.612,1.68-0.532,3.498,0.223,5.117c0.756,1.62,2.097,2.849,3.776,3.46
		c1.681,0.612,3.499,0.532,5.117-0.223c1.621-0.756,2.848-2.097,3.459-3.776c1.551-4.262,6.261-6.462,10.525-4.909
		c4.263,1.551,6.46,6.264,4.909,10.525c-2.111,5.803-6.357,10.436-11.952,13.045C265.879,254.729,262.56,255.458,259.23,255.458z"/>
</g>
<g>
	<path style="fill:#E6595A;" d="M165.732,231.431c-0.933,0-1.881-0.16-2.808-0.497l-23.871-8.688
		c-4.262-1.552-6.46-6.265-4.909-10.527c1.551-4.263,6.266-6.46,10.527-4.909l23.871,8.688c4.263,1.552,6.461,6.265,4.909,10.527
		C172.237,229.359,169.086,231.431,165.732,231.431z"/>
	<path style="fill:#E6595A;" d="M332.543,292.146c-0.933,0-1.88-0.16-2.809-0.497l-23.871-8.688
		c-4.262-1.552-6.46-6.265-4.908-10.526c1.551-4.262,6.26-6.461,10.526-4.909l23.871,8.688c4.262,1.552,6.46,6.265,4.908,10.526
		C339.049,290.074,335.899,292.146,332.543,292.146z"/>
</g>
<circle style="opacity:0.1;enable-background:new    ;" cx="156.359" cy="374.861" r="8.253"/>
<circle style="opacity:0.1;enable-background:new    ;" cx="74.327" cy="180.603" r="8.253"/>
<circle style="opacity:0.1;enable-background:new    ;" cx="166.762" cy="129.159" r="8.253"/>
<circle style="opacity:0.1;enable-background:new    ;" cx="327.15" cy="115.646" r="8.253"/>
<circle style="opacity:0.1;enable-background:new    ;" cx="375.583" cy="213.936" r="8.253"/>
<circle style="opacity:0.1;enable-background:new    ;" cx="308.36" cy="374.5" r="8.253"/>
<g>
</g>
<g>
</g>
<g>
</g>
<g>
</g>
<g>
</g>
<g>
</g>
<g>
</g>
<g>
</g>
<g>
</g>
<g>
</g>
<g>
</g>
<g>
</g>
<g>
</g>
<g>
</g>
<g>
</g>
</svg>
