<?xml version="1.0" encoding="iso-8859-1"?>
<!-- Generator: Adobe Illustrator 19.0.0, SVG Export Plug-In . SVG Version: 6.00 Build 0)  -->
<svg version="1.1" id="Layer_1" xmlns="http://www.w3.org/2000/svg" xmlns:xlink="http://www.w3.org/1999/xlink" x="0px" y="0px"
	 viewBox="0 0 512 512" style="enable-background:new 0 0 512 512;" xml:space="preserve">
<path style="fill:#4E901E;" d="M325.962,325.726c0,90.012-72.969,162.981-162.981,162.981S0,415.738,0,325.726
	S72.969,23.293,162.981,23.293S325.962,235.714,325.962,325.726z"/>
<path style="fill:#47821C;" d="M195.778,123.341c-30.826,67.262-51.536,148.594-51.536,202.384
	c0,61.629,27.368,116.983,70.586,154.555c64.592-21.66,111.133-82.67,111.133-154.556c0-66.206-39.477-198.632-96.174-264.05
	C217.849,79.404,206.482,99.985,195.778,123.341z"/>
<path style="fill:#A4E276;" d="M162.981,446.911c-66.822,0-121.185-54.364-121.185-121.185c0-35.624,15.091-104.618,43.936-167.558
	C115.04,94.217,146.32,65.09,162.981,65.09s47.942,29.128,77.25,93.078c28.843,62.939,43.936,131.934,43.936,167.558
	C284.166,392.547,229.803,446.911,162.981,446.911z"/>
<path style="fill:#91DC5A;" d="M207.041,100.262c-3.83,7.365-7.586,15.053-11.262,23.074
	c-30.826,67.262-51.536,148.594-51.536,202.384c0,44.587,14.333,85.883,38.619,119.545c57.396-9.514,101.305-59.494,101.305-119.545
	c0-35.624-15.091-104.618-43.936-167.558C229.15,133.985,217.789,114.792,207.041,100.262z"/>
<path style="fill:#FFDAAA;" d="M216.484,169.051c-20.529-44.795-39.316-65.797-49.232-73.919c-3.822-2.782-6.773-1.452-8.794,0.205
	c-9.98,8.272-28.626,29.304-48.979,73.713c-26.995,58.906-41.561,124.688-41.561,156.676c0,52.417,42.645,95.063,95.063,95.063
	c52.418,0,95.064-42.645,95.064-95.063C258.044,293.738,243.478,227.956,216.484,169.051z"/>
<path style="fill:#FFC477;" d="M144.242,325.71c0,34.247,8.463,66.55,23.388,94.947c50.267-2.433,90.414-44.088,90.414-94.947
	c0-31.989-14.566-97.77-41.56-156.675c-7.893-17.224-15.526-30.912-22.502-41.724C164.156,193.779,144.242,272.976,144.242,325.71z"
	/>
<circle style="fill:#CC7400;" cx="162.983" cy="324.807" r="64"/>
<path style="fill:#AA6100;" d="M162.981,260.814c-4.023,0-7.952,0.389-11.769,1.098c-4.496,23.402-6.971,45.242-6.971,63.798
	c0,21.775,3.434,42.758,9.761,62.457c2.935,0.413,5.929,0.639,8.978,0.639c35.345,0,63.997-28.652,63.997-63.997
	C226.978,289.466,198.326,260.814,162.981,260.814z"/>
<path style="fill:#5EAC24;" d="M512,325.726c0,90.012-72.969,162.981-162.981,162.981s-162.981-72.969-162.981-162.981
	S259.007,23.293,349.019,23.293S512,235.714,512,325.726z"/>
<g>
	<path style="fill:#4E901E;" d="M273.787,326.138c0-74.911,50.541-234.595,119.382-286.07
		c-14.041-10.632-28.849-16.775-44.15-16.775c-90.012,0-162.981,212.42-162.981,302.432s72.969,162.981,162.981,162.981
		c14.926,0,29.38-2.018,43.115-5.776C323.82,463.522,273.787,400.672,273.787,326.138z"/>
	<circle style="fill:#4E901E;" cx="349.017" cy="331.483" r="17.56"/>
	<circle style="fill:#4E901E;" cx="448.157" cy="294.045" r="17.56"/>
	<circle style="fill:#4E901E;" cx="366.582" cy="204.278" r="17.56"/>
	<path style="fill:#4E901E;" d="M391.976,292.161c-2.06,0-4.075-0.836-5.538-2.288c-1.463-1.463-2.299-3.479-2.299-5.548
		c0-2.058,0.836-4.086,2.299-5.538c1.462-1.463,3.478-2.299,5.538-2.299c2.068,0,4.086,0.836,5.548,2.299
		c1.453,1.463,2.288,3.479,2.288,5.538c0,2.069-0.836,4.086-2.288,5.548C396.061,291.325,394.044,292.161,391.976,292.161z"/>
	<path style="fill:#4E901E;" d="M416.809,356.883c-2.06,0-4.075-0.836-5.538-2.288c-1.463-1.463-2.299-3.479-2.299-5.548
		c0-2.058,0.836-4.086,2.299-5.538c1.462-1.463,3.478-2.299,5.538-2.299c2.068,0,4.086,0.836,5.548,2.299
		c1.453,1.463,2.288,3.479,2.288,5.538c0,2.069-0.836,4.086-2.288,5.548C420.894,356.047,418.877,356.883,416.809,356.883z"/>
	<path style="fill:#4E901E;" d="M317.129,284.324c-2.06,0-4.075-0.836-5.538-2.288c-1.463-1.463-2.299-3.479-2.299-5.548
		c0-2.058,0.836-4.086,2.299-5.538c1.462-1.463,3.478-2.299,5.538-2.299c2.068,0,4.086,0.836,5.548,2.299
		c1.453,1.463,2.288,3.479,2.288,5.538c0,2.069-0.836,4.086-2.288,5.548C321.214,283.488,319.196,284.324,317.129,284.324z"/>
	<path style="fill:#4E901E;" d="M432.482,219.951c-2.059,0-4.075-0.836-5.538-2.288c-1.463-1.463-2.299-3.48-2.299-5.548
		c0-2.058,0.836-4.086,2.299-5.538c1.462-1.463,3.478-2.299,5.538-2.299c2.068,0,4.086,0.836,5.548,2.299
		c1.453,1.463,2.288,3.48,2.288,5.538c0,2.069-0.836,4.086-2.288,5.548C436.568,219.115,434.55,219.951,432.482,219.951z"/>
	<path style="fill:#4E901E;" d="M386.066,134.792c-2.06,0-4.075-0.836-5.538-2.288c-1.463-1.463-2.299-3.48-2.299-5.548
		c0-2.058,0.836-4.086,2.299-5.538c1.462-1.463,3.478-2.299,5.538-2.299c2.068,0,4.086,0.836,5.548,2.299
		c1.453,1.463,2.288,3.48,2.288,5.538c0,2.069-0.836,4.086-2.288,5.548C390.151,133.956,388.135,134.792,386.066,134.792z"/>
	<path style="fill:#4E901E;" d="M374.415,390.842c-2.06,0-4.075-0.836-5.538-2.288c-1.463-1.463-2.299-3.479-2.299-5.548
		c0-2.058,0.836-4.086,2.299-5.538c1.462-1.463,3.478-2.299,5.538-2.299c2.068,0,4.086,0.836,5.548,2.299
		c1.453,1.463,2.288,3.479,2.288,5.538c0,2.069-0.836,4.086-2.288,5.548C378.502,390.006,376.484,390.842,374.415,390.842z"/>
	<path style="fill:#4E901E;" d="M457.851,400.112c-3.933-1.807-4.905-7.047-2.674-10.755c2.202-3.659,4.239-7.479,6.052-11.355
		c1.837-3.919,6.503-5.609,10.421-3.775c3.92,1.835,5.61,6.5,3.775,10.42c-2.044,4.366-4.337,8.668-6.819,12.792
		C467.135,399.882,463.151,402.547,457.851,400.112z"/>
	<path style="fill:#4E901E;" d="M391.342,450.629c-1.087-4.189,0.287-8.582,4.294-10.217c17.914-7.309,34.125-18.941,46.883-33.638
		c2.837-3.27,7.788-3.618,11.055-0.781c3.27,2.837,3.618,7.787,0.782,11.055c-14.361,16.544-32.619,29.642-52.797,37.876
		C400.591,455.319,393.169,457.665,391.342,450.629z"/>
</g>
<g>
</g>
<g>
</g>
<g>
</g>
<g>
</g>
<g>
</g>
<g>
</g>
<g>
</g>
<g>
</g>
<g>
</g>
<g>
</g>
<g>
</g>
<g>
</g>
<g>
</g>
<g>
</g>
<g>
</g>
</svg>
