<svg id="Capa_1" enable-background="new 0 0 512 512" height="512" viewBox="0 0 512 512" width="512" xmlns="http://www.w3.org/2000/svg"><g><g><path d="m409.77 237.174.02-.113c.674-3.836 2.536-7.338 5.238-10.143 19.239-19.975 31.559-50.676 31.559-85.105 0-49.56-25.527-91.394-60.474-104.631-9.19-3.481-17.141-9.687-22.626-17.84-2.849-4.235-5.8-8.386-8.849-12.448-5.127-6.832-13.154-8.219-19.719-5.766 21.685 43.381-100.143 456.174-269.271 466.314 1.138 6.936 6.358 13.227 14.862 14.254 5.043.609 10.113 1.09 15.205 1.439 9.804.673 19.154 4.456 26.763 10.674 28.937 23.646 77.93 24.837 120.85.057 29.817-17.215 50.244-43.234 57.923-69.883 1.078-3.742 3.18-7.106 6.165-9.608l.088-.074c2.596-2.175 5.697-3.642 9.013-4.333 30.238-6.307 60.526-28.573 80.024-62.345s23.638-71.135 13.98-100.476c-1.056-3.218-1.337-6.636-.751-9.973z" fill="#e2f4b4"/></g><g><path d="m409.77 237.174.02-.113c.674-3.836 2.536-7.338 5.238-10.143 19.239-19.975 31.559-50.676 31.559-85.105 0-49.56-25.527-91.394-60.474-104.631-9.19-3.481-17.141-9.687-22.626-17.84-2.849-4.235-5.8-8.386-8.849-12.448-5.127-6.832-13.154-8.219-19.719-5.766 1.94 3.88 3.803 7.805 5.589 11.772 4.303 3.782 9.286 6.779 14.699 8.829 34.947 13.237 60.474 55.071 60.474 104.631 0 34.429-12.32 65.13-31.559 85.105-2.702 2.805-4.565 6.307-5.238 10.143l-.02.113c-.586 3.336-.305 6.755.754 9.972 9.657 29.34 5.518 66.704-13.98 100.476s-49.785 56.038-80.024 62.345c-3.316.692-6.417 2.158-9.013 4.333l-.088.074c-2.986 2.501-5.087 5.865-6.165 9.608-7.679 26.649-28.107 52.669-57.924 69.883-30.184 17.427-63.372 22.009-90.475 14.97.178.141.355.283.53.426 28.937 23.646 77.93 24.837 120.85.057 29.817-17.215 50.244-43.234 57.924-69.883 1.078-3.742 3.18-7.106 6.165-9.608l.088-.074c2.596-2.175 5.697-3.642 9.013-4.333 30.238-6.307 60.526-28.573 80.024-62.345s23.638-71.135 13.98-100.476c-1.058-3.217-1.339-6.635-.753-9.972z" fill="#d8f1a0"/></g><g><path d="m362.468 78.559c-.197 0-.394.002-.59.005 4.377 20.826-7.318 42.053-7.09 63.246s12.379 42.352 8.459 63.251c26.695-.442 48.196-28.641 48.14-63.327-.056-34.934-21.958-63.218-48.919-63.175z" fill="#f6e266"/></g><g><path d="m351.905 248.811c-.025-.014-.049-.028-.074-.042-6.135 18.168-30.227 25.364-39.688 42.42-11.04 19.902-8.049 49.42-23.618 67.106.042.025.084.05.126.074 23.349 13.48 56.436-.117 73.903-30.371 17.468-30.253 12.7-65.706-10.649-79.187z" fill="#f6e266"/></g><g><path d="m146.216 452.159c.091.162.182.324.275.485 13.48 23.348 48.934 28.116 79.187 10.649 29.968-17.302 43.593-49.931 30.746-73.239-12.698 10.936-47.466 10.249-61.326 18.885-22.297 13.894-24.5 35.282-48.882 43.22z" fill="#f6e266"/></g><g><path d="m368.805 145.253c0-51.797-12.201-100.745-33.885-144.126-6.539 2.444-11.628 8.698-10.955 17.18.021.263.041.526.062.789 1.077 13.898-4.23 27.406-13.929 37.417-19.347 19.97-31.747 50.758-31.747 85.299 0 18.637 3.61 36.181 9.974 51.523 3.461 8.345.906 17.92-6.367 23.279-14.568 10.735-27.734 25.262-37.942 42.944-10.208 17.681-16.207 36.347-18.219 54.331-1.005 8.978-8.019 15.979-16.977 17.154-16.468 2.16-33.467 7.806-49.607 17.124-29.913 17.271-50.377 43.403-57.998 70.143-3.821 13.406-12.866 24.755-25.44 30.772-.238.114-.476.228-.714.341-7.659 3.648-10.537 11.149-9.41 18.018 169.126-10.14 303.154-150.512 303.154-322.188z" fill="#c8ea73"/></g><g><path d="m334.92 1.128c-6.539 2.444-11.628 8.698-10.956 17.18.021.263.042.526.062.789.359 4.629.009 9.215-.975 13.643 9.647 30.634 14.849 63.24 14.849 97.06 0 155.455-109.897 285.241-256.238 315.909-1.863 1.258-3.828 2.387-5.888 3.373-.238.114-.476.228-.714.341-7.659 3.648-10.537 11.149-9.41 18.018 169.128-10.14 303.156-150.512 303.156-322.188-.001-51.797-12.202-100.744-33.886-144.125z" fill="#b7e445"/></g><path d="m338.486 204.65c-1.585 0-3.182-.485-4.557-1.492-17.273-12.644-28.003-36.15-28.003-61.345 0-24.788 9.983-47.355 26.704-60.365 3.368-2.619 8.221-2.015 10.842 1.354 2.621 3.368 2.015 8.222-1.353 10.843-12.793 9.954-20.74 28.411-20.74 48.169 0 20.36 8.306 39.088 21.677 48.876 3.444 2.521 4.191 7.355 1.671 10.798-1.514 2.067-3.862 3.162-6.241 3.162zm-63.958 140.885c3.94-1.639 5.806-6.161 4.167-10.101-6.262-15.059-3.964-35.133 5.998-52.388 9.995-17.311 26.279-29.345 42.496-31.405 4.233-.538 7.228-4.406 6.691-8.639-.538-4.234-4.412-7.225-8.639-6.691-21.224 2.697-41.385 17.28-53.931 39.009-12.503 21.656-15.076 46.347-6.883 66.048 1.235 2.97 4.109 4.762 7.137 4.762.989-.001 1.994-.192 2.964-.595zm-125.157 82.001c2.202-16.077 14.216-32.21 31.354-42.104 17.61-10.167 37.964-12.346 53.122-5.684 3.906 1.718 8.465-.058 10.182-3.965 1.716-3.906-.058-8.465-3.965-10.182-19.579-8.604-45.277-6.132-67.065 6.449-21.502 12.413-36.058 32.372-38.938 53.389-.579 4.228 2.378 8.124 6.607 8.704.355.049.708.072 1.058.072 3.801 0 7.115-2.807 7.645-6.679z" fill="#e2f4b4"/><g fill="#d8f1a0"><path d="m278.695 335.434c-1.871-4.501-2.978-9.449-3.344-14.637-4.03 5.482-8.229 10.831-12.59 16.042.495 1.535 1.05 3.047 1.666 4.529 1.235 2.97 4.109 4.762 7.137 4.762.989 0 1.994-.191 2.964-.594 3.94-1.64 5.806-6.162 4.167-10.102z"/><path d="m149.371 427.536c.206-1.508.499-3.016.875-4.519-5.114 2.361-10.301 4.592-15.555 6.688 1.066 2.321 3.259 4.065 5.977 4.437.355.049.708.072 1.058.072 3.801.001 7.115-2.806 7.645-6.678z"/><path d="m233.847 379.748c3.906 1.718 8.465-.058 10.182-3.965 1.716-3.906-.058-8.465-3.965-10.182-1.039-.457-2.096-.882-3.169-1.276-4.468 4.227-9.057 8.327-13.761 12.295 3.768.618 7.367 1.658 10.713 3.128z"/><path d="m336.444 98.956c1.763-1.963 3.658-3.743 5.675-5.311 3.368-2.62 3.974-7.475 1.353-10.843-2.245-2.885-6.127-3.742-9.312-2.283.934 6.091 1.696 12.238 2.284 18.437z"/><path d="m327.189 251.641c4.233-.538 7.228-4.406 6.691-8.639-.538-4.234-4.412-7.225-8.639-6.691-1.905.242-3.801.58-5.684 1.01-2.275 6.442-4.749 12.791-7.414 19.038 4.892-2.453 9.972-4.074 15.046-4.718z"/><path d="m338.486 204.65c2.379 0 4.727-1.096 6.24-3.163 2.52-3.443 1.773-8.278-1.671-10.798-3.444-2.521-6.553-5.636-9.269-9.219-1.014 6.298-2.209 12.536-3.581 18.706 1.204 1.051 2.446 2.046 3.724 2.981 1.375 1.008 2.972 1.493 4.557 1.493z"/></g></g></svg>