<svg id="Layer_1" enable-background="new 0 0 512 512" height="512" viewBox="0 0 512 512" width="512" xmlns="http://www.w3.org/2000/svg"><g><path d="m215.278 468.952-140.264-98.845h-10.898l-22.956 32.785c-1.385 1.978-.174 4.719 2.22 5.028l25.317 3.267c2.797.361 5.239 2.071 6.535 4.576l12.1 23.39c1.296 2.505 3.738 4.215 6.534 4.576l26.118 3.37c2.797.361 5.239 2.071 6.535 4.576l12.1 23.39c1.296 2.505 3.737 4.214 6.534 4.576l26.122 3.372c2.797.361 5.238 2.071 6.534 4.575l11.733 22.677c1.109 2.145 4.1 2.344 5.484.366l22.956-32.785z" fill="#ff8088"/><path d="m75.232 415.762 2.992 5.784 23.057-32.928-26.267-18.51h-10.898l-22.956 32.784c-1.385 1.978-.174 4.719 2.22 5.028l25.317 3.267c2.798.36 5.24 2.07 6.535 4.575z" fill="#ff646f"/><path d="m463.363 79.901-109.226-76.481c-8.55-5.987-20.335-3.909-26.322 4.641l-104.957 149.894c.132.083.267.158.395.248v5.817l134.716 92.097h5.078l104.957-149.894c5.987-8.551 3.909-20.335-4.641-26.322z" fill="#d8694b"/><path d="m247.759 180.772 108.632-155.141c3.943-5.631 10.102-8.768 16.473-9.099l-18.727-13.112c-8.55-5.987-20.335-3.909-26.322 4.641l-104.957 149.894c.132.083.267.158.395.248v5.817z" fill="#c5573a"/><path d="m433.211 97.006-84.835-59.402c-1.123-.786-2.669-.513-3.456.609l-96.404 137.679v6.162l82.669 57.941 6.232-1.855 96.404-137.679c.786-1.122.513-2.669-.61-3.455z" fill="#a94b30"/><g><path d="m284.56 219.021c-3.495-2.448-4.345-7.265-1.897-10.761l75.751-108.183c2.448-3.495 7.265-4.345 10.761-1.897 3.495 2.448 4.345 7.265 1.897 10.761l-75.751 108.183c-2.447 3.495-7.265 4.345-10.761 1.897z" fill="#c5573a"/></g><path d="m248.427 419.504-39.833-230.245-10.593-10.359-133.885 191.207 153.867 107.738 26.146-37.341z" fill="#ff646f"/><path d="m214.989 226.225-6.395-36.966-10.593-10.359-133.885 191.207 33.635 23.551z" fill="#ff4755"/><path d="m362.679 255.83-139.426-97.627c-3.988-2.792-9.484-1.823-12.276 2.164l-12.976 18.533 46.128 261.604 120.715-172.399c2.792-3.987 1.823-9.483-2.165-12.275z" fill="#ffc265"/><g><path d="m249.668 176.699-26.415-18.496c-3.988-2.792-9.484-1.823-12.276 2.164l-12.976 18.533 10.084 57.186z" fill="#ffb541"/></g></g></svg>