<?xml version="1.0" encoding="iso-8859-1"?>
<!-- Generator: Adobe Illustrator 19.0.0, SVG Export Plug-In . SVG Version: 6.00 Build 0)  -->
<svg version="1.1" id="Layer_1" xmlns="http://www.w3.org/2000/svg" xmlns:xlink="http://www.w3.org/1999/xlink" x="0px" y="0px"
	 viewBox="0 0 512 512" style="enable-background:new 0 0 512 512;" xml:space="preserve">
<path style="fill:#E09B2D;" d="M470.744,248.711l-49.107,184.151c-4.322,16.164-18.965,27.418-35.705,27.418h-259.87
	c-16.74,0-31.382-11.254-35.692-27.418L41.263,248.711L470.744,248.711L470.744,248.711z"/>
<polygon style="fill:#F7B239;" points="102.277,294.337 135.858,460.279 376.137,460.279 409.719,294.337 "/>
<g>
	<polygon style="fill:#995C0D;" points="430.257,241.215 428.735,248.711 385.92,460.279 366.354,460.279 409.169,248.711 
		411.458,237.405 	"/>
	<polygon style="fill:#995C0D;" points="145.641,460.279 126.075,460.279 83.26,248.711 81.738,241.215 100.537,237.405 
		102.826,248.711 	"/>
	<polygon style="fill:#995C0D;" points="331.454,239.911 330.738,248.711 313.628,460.279 294.394,460.279 311.505,248.711 
		312.336,238.376 	"/>
	<polygon style="fill:#995C0D;" points="217.6,460.279 198.367,460.279 181.256,248.711 180.54,239.911 199.659,238.376 
		200.49,248.711 	"/>
	<path style="fill:#995C0D;" d="M476.371,248.711H35.636c-27.546,0-44.644-29.963-30.641-53.672
		c13.53-22.891,30.104-43.774,49.171-62.087C106.534,82.642,177.663,51.72,256.004,51.72c78.354,0,149.469,30.922,201.824,81.231
		c19.067,18.313,35.641,39.196,49.171,62.087C521.015,218.748,503.904,248.711,476.371,248.711z"/>
</g>
<path style="fill:#B27214;" d="M457.828,132.951c-52.355,50.309-123.483,81.231-201.837,81.231
	c-78.341,0-149.456-30.922-201.824-81.231C106.534,82.642,177.663,51.72,256.004,51.72
	C334.357,51.72,405.473,82.641,457.828,132.951z"/>
<path style="fill:#D3C437;" d="M174.854,164.889c-2.454,0-4.909-0.936-6.782-2.81c-3.746-3.746-3.746-9.819,0-13.563l23.019-23.018
	c3.746-3.746,9.819-3.746,13.563,0c3.746,3.746,3.746,9.819,0,13.563l-23.019,23.018
	C179.764,163.953,177.308,164.889,174.854,164.889z"/>
<path style="fill:#F7B239;" d="M332.142,138.035c-2.454,0-4.909-0.936-6.782-2.81l-19.182-19.181c-3.746-3.746-3.746-9.818,0-13.563
	c3.746-3.746,9.819-3.747,13.563,0l19.182,19.181c3.746,3.746,3.746,9.818,0,13.563
	C337.052,137.099,334.596,138.035,332.142,138.035z"/>
<path style="fill:#F77D2B;" d="M264.047,221.474c-2.454,0-4.909-0.936-6.782-2.81c-3.746-3.746-3.746-9.819,0-13.563l22.06-22.058
	c3.746-3.746,9.819-3.747,13.563,0c3.746,3.746,3.746,9.819,0,13.563l-22.06,22.059
	C268.957,220.538,266.503,221.474,264.047,221.474z"/>
<g>
	<path style="fill:#F95428;" d="M100.047,207.091c-3.939,0-7.632-2.445-9.032-6.367l-9.591-26.854
		c-1.781-4.989,0.818-10.476,5.807-12.258c4.986-1.781,10.476,0.818,12.258,5.807l9.591,26.854
		c1.781,4.989-0.818,10.476-5.807,12.258C102.207,206.911,101.117,207.091,100.047,207.091z"/>
	<path style="fill:#F95428;" d="M445.313,195.579c-2.454,0-4.909-0.936-6.782-2.81l-17.264-17.263
		c-3.746-3.746-3.746-9.818,0-13.563s9.819-3.747,13.563,0l17.264,17.263c3.746,3.746,3.746,9.818,0,13.563
		C450.222,194.642,447.768,195.579,445.313,195.579z"/>
</g>
<g>
</g>
<g>
</g>
<g>
</g>
<g>
</g>
<g>
</g>
<g>
</g>
<g>
</g>
<g>
</g>
<g>
</g>
<g>
</g>
<g>
</g>
<g>
</g>
<g>
</g>
<g>
</g>
<g>
</g>
</svg>
