<svg id="Capa_1" enable-background="new 0 0 512 512" height="512" viewBox="0 0 512 512" width="512" xmlns="http://www.w3.org/2000/svg"><g><g><path d="m105.615 315.937c-28.477 0-53.371 9.101-66.955 22.681-4.596 4.595-10.906 7.055-17.404 7.055-8.962 0-16.674 6.887-17.095 15.839-.45 9.558 7.166 17.449 16.625 17.449h.47c6.499 0 12.809 2.461 17.404 7.055 13.584 13.58 38.479 22.681 66.955 22.681 22.937 0 43.558-5.902 57.814-15.295 2.889-1.903 4.585-5.168 4.585-8.627v-44.918c0-3.459-1.696-6.724-4.585-8.627-14.256-9.39-34.877-15.293-57.814-15.293z" fill="#fbcb80"/></g><g><g><path d="m163.402 331.232c-7.854-5.175-17.648-9.282-28.69-11.934.228.866.354 1.765.354 2.681v44.918c0 3.459-1.696 6.724-4.585 8.627-14.256 9.392-34.877 15.294-57.814 15.294-12.125 0-23.595-1.655-33.825-4.598 13.629 13.467 38.412 22.478 66.745 22.478 22.937 0 43.558-5.902 57.814-15.295 2.889-1.903 4.585-5.168 4.585-8.627v-44.918c0-3.458-1.696-6.723-4.584-8.626z" fill="#e7b467"/></g></g><g><path d="m243.695 103.301c-18.17 0-35.061 4.785-49.138 12.995-17.409 10.154-39.023 10.154-56.432 0-14.077-8.21-30.968-12.995-49.138-12.995-49.147 0-88.987 34.978-88.987 78.125s39.84 78.125 88.986 78.125c18.17 0 35.061-4.785 49.138-12.995 17.409-10.154 39.023-10.154 56.432 0 14.077 8.21 30.968 12.995 49.138 12.995 49.146 0 88.986-34.978 88.986-78.125s-39.84-78.125-88.985-78.125z" fill="#f3cec8"/></g><g><path d="m279.372 109.853c2.288 6.922 3.538 14.232 3.538 21.802 0 43.147-39.84 78.125-88.986 78.125-18.17 0-35.061-4.785-49.138-12.995-17.409-10.154-39.023-10.154-56.432 0-14.077 8.211-30.968 12.995-49.138 12.995-12.691 0-24.753-2.349-35.677-6.552 10.752 32.533 44.925 56.323 85.448 56.323 18.17 0 35.061-4.785 49.138-12.995 17.409-10.154 39.023-10.154 56.432 0 14.077 8.21 30.968 12.995 49.138 12.995 49.146 0 88.986-34.978 88.986-78.125 0-32.005-21.93-59.499-53.309-71.573z" fill="#d8a69d"/></g><g><ellipse cx="429.055" cy="266.313" fill="#e7566a" rx="62.146" ry="38.789"/></g><g><ellipse cx="274.529" cy="266.313" fill="#e7566a" rx="62.146" ry="38.789"/></g><g><path d="m429.055 227.523c-6.54 0-12.841.634-18.762 1.803 25.151 4.966 43.385 19.645 43.385 36.986s-18.233 32.02-43.385 36.986c5.921 1.169 12.222 1.803 18.762 1.803 34.323 0 62.147-17.367 62.147-38.789s-27.824-38.789-62.147-38.789z" fill="#c73044"/></g><g><path d="m274.529 227.523c-6.54 0-12.841.634-18.762 1.803 25.151 4.966 43.385 19.645 43.385 36.986s-18.233 32.02-43.385 36.986c5.921 1.169 12.222 1.803 18.762 1.803 34.323 0 62.147-17.367 62.147-38.789-.001-21.422-27.825-38.789-62.147-38.789z" fill="#c73044"/></g><g><path d="m204.532 275.71c-10.575 0-17.523 11.019-12.997 20.576 13.385 28.27 45.128 48.151 82.175 48.151 18.17 0 35.062-4.785 49.139-12.996 17.409-10.154 39.022-10.154 56.431 0 14.077 8.211 30.969 12.996 49.139 12.996 37.047 0 68.79-19.881 82.175-48.151 4.525-9.558-2.422-20.576-12.997-20.576z" fill="#f3cec8"/></g><g><path d="m497.597 275.71h-26.505c-15.78 21.804-43.515 36.28-75.12 36.28-18.17 0-35.062-4.785-49.139-12.996-17.409-10.154-39.022-10.154-56.431 0-14.077 8.211-30.969 12.996-49.139 12.996-17.696 0-34.175-4.545-48.028-12.364 14.238 26.481 44.907 44.811 80.475 44.811 18.17 0 35.062-4.785 49.139-12.996 17.409-10.154 39.022-10.154 56.431 0 14.077 8.211 30.969 12.996 49.139 12.996 37.047 0 68.79-19.881 82.175-48.151 4.525-9.557-2.422-20.576-12.997-20.576z" fill="#d8a69d"/></g><g><path d="m4.169 363.534c.624 8.623 7.807 15.428 16.589 15.428h.47c6.499 0 12.809 2.461 17.404 7.055 13.584 13.58 38.479 22.681 66.955 22.681 22.937 0 43.558-5.902 57.814-15.295 2.889-1.903 4.585-5.168 4.585-8.627v-21.243h-163.817z" fill="#fcddaf"/></g><g><g><path d="m135.066 363.534v3.363c0 3.459-1.696 6.724-4.585 8.627-14.256 9.392-34.877 15.294-57.814 15.294-12.125 0-23.595-1.655-33.824-4.598 13.629 13.467 38.411 22.478 66.745 22.478 22.937 0 43.558-5.902 57.814-15.294 2.889-1.903 4.585-5.168 4.585-8.627v-21.243z" fill="#fbcb80"/></g></g></g></svg>