<?xml version="1.0" encoding="iso-8859-1"?>
<!-- Generator: Adobe Illustrator 19.0.0, SVG Export Plug-In . SVG Version: 6.00 Build 0)  -->
<svg version="1.1" id="Capa_1" xmlns="http://www.w3.org/2000/svg" xmlns:xlink="http://www.w3.org/1999/xlink" x="0px" y="0px"
	 viewBox="0 0 511.999 511.999" style="enable-background:new 0 0 511.999 511.999;" xml:space="preserve">
<polygon style="fill:#FADC60;" points="145.925,150.536 196.939,163.603 366.074,150.536 397.245,236.424 419.715,248.231 
	430.966,304.436 417.221,411.062 386.992,500.08 300.606,511.999 232.076,495.724 211.393,511.999 125.007,500.08 86.997,415.154 
	81.033,304.436 92.284,248.231 "/>
<path style="fill:#7CB777;" d="M416.195,71.235c-15.738-4.548-40.506-7.535-64.885,6.58c0,0,10.687-28.08,23.665-47.105
	c3.962-5.807-0.778-13.596-7.764-12.815c-21.887,2.445-56.754,11.24-76.97,41.565c0,0-14.649-37.885-27.497-55.973
	c-3.302-4.648-10.186-4.648-13.488,0c-12.847,18.088-27.497,55.973-27.497,55.973c-20.216-30.324-55.083-39.119-76.97-41.565
	c-6.987-0.781-11.726,7.008-7.764,12.815c12.978,19.025,23.665,47.105,23.665,47.105c-24.379-14.115-49.147-11.127-64.885-6.58
	c-6.645,1.92-8.083,10.768-2.383,14.684c31.359,21.546,55.144,61.788,55.144,61.788l107.433,35.301l107.434-35.3
	c0,0,23.785-40.243,55.144-61.788C424.277,82.003,422.838,73.155,416.195,71.235z"/>
<path style="fill:#35925D;" d="M126.232,116.803c13.708,16.314,22.333,30.905,22.333,30.905l107.434,35.3l107.434-35.3
	c0,0,8.626-14.591,22.333-30.905L126.232,116.803L126.232,116.803z"/>
<g>
	<path style="fill:#F2C42C;" d="M84.066,399.292c3.459,3.885,7.034,7.805,10.712,11.77c-2.574,1.379-5.16,2.747-7.781,4.092
		C85.905,409.912,84.929,404.614,84.066,399.292z"/>
	<path style="fill:#F2C42C;" d="M417.221,411.062c3.678-3.965,7.253-7.885,10.712-11.77c-0.862,5.322-1.839,10.62-2.931,15.862
		C422.381,413.809,419.795,412.441,417.221,411.062z"/>
	<path style="fill:#F2C42C;" d="M247.954,147.708c-15.849,20.585-35.435,43.642-58.985,67.41
		c-21.39-28.217-35.527-51.365-43.044-64.583c0.874-0.954,1.759-1.897,2.643-2.828h99.386V147.708z"/>
	<path style="fill:#F2C42C;" d="M114.754,280.322c-10.736,8.172-21.976,16.241-33.722,24.113
		c2.104-19.596,5.931-38.435,11.253-56.204c3.483,5.287,7.057,10.493,10.654,15.655C106.8,269.426,110.743,274.909,114.754,280.322z
		"/>
	<path style="fill:#F2C42C;" d="M386.992,500.08c-10.286,7.586-22.918,11.919-36.274,11.919h-50.112
		c15.39-10.609,29.884-21.516,43.481-32.55C358.051,486.84,372.338,493.724,386.992,500.08z"/>
	<path style="fill:#F2C42C;" d="M255.999,423.108c-27.953,21.252-57.204,40.032-88.087,56.342
		c-28.079-22.78-52.388-46.089-73.134-68.388c31.412-16.781,59.905-35.228,85.616-54.376c9.678,9.769,19.631,19.263,29.837,28.47
		C225.116,398.58,240.356,411.235,255.999,423.108z"/>
	<path style="fill:#F2C42C;" d="M397.245,280.322c-20.022,26.975-42.009,52.492-65.64,76.363
		c-28.596-21.274-53.745-43.412-75.605-65.065c27.389-27.136,49.618-53.502,67.031-76.501
		C344.431,236.715,369.12,258.898,397.245,280.322z"/>
	<path style="fill:#F2C42C;" d="M211.393,511.999h-50.112c-13.355,0-25.987-4.333-36.274-11.919
		c14.654-6.356,28.941-13.241,42.906-20.631C181.509,490.483,196.003,501.39,211.393,511.999z"/>
	<path style="fill:#F2C42C;" d="M417.221,411.062c-20.746,22.297-45.055,45.607-73.134,68.388
		c-30.884-16.31-60.135-35.09-88.087-56.342c15.643-11.873,30.884-24.528,45.768-37.952c10.206-9.207,20.16-18.7,29.837-28.47
		C357.316,375.834,385.808,394.281,417.221,411.062z"/>
	<path style="fill:#F2C42C;" d="M430.966,304.436c-11.746-7.873-22.987-15.942-33.722-24.113
		c4.012-5.414,7.954-10.896,11.815-16.436c3.597-5.16,7.172-10.368,10.654-15.655C425.036,266.001,428.864,284.839,430.966,304.436z
		"/>
	<path style="fill:#F2C42C;" d="M366.074,150.536c-7.517,13.217-21.654,36.365-43.044,64.583
		c-23.55-23.768-43.136-46.825-58.985-67.41h99.386C364.316,148.64,365.201,149.582,366.074,150.536z"/>
	<path style="fill:#F2C42C;" d="M255.999,291.621c-21.86,21.654-47.009,43.791-75.605,65.065
		c-23.631-23.872-45.618-49.388-65.64-76.363c28.125-21.424,52.813-43.607,74.214-65.203
		C206.382,238.117,228.61,264.484,255.999,291.621z"/>
</g>
<g>
	<path style="fill:#FADC60;" d="M188.969,215.118c-21.401,21.597-46.089,43.78-74.214,65.203
		c-4.012-5.414-7.954-10.896-11.815-16.436c-3.597-5.16-7.172-10.368-10.654-15.655c11.551-38.549,30.16-72.123,53.64-97.696
		C153.442,163.753,167.579,186.902,188.969,215.118z"/>
	<path style="fill:#FADC60;" d="M425.002,415.154c-4.299,20.757-10.264,40.745-17.677,58.836
		c-4.344,10.632-11.471,19.573-20.333,26.09c-14.654-6.356-28.941-13.241-42.906-20.631c28.079-22.78,52.388-46.089,73.134-68.388
		C419.795,412.441,422.381,413.809,425.002,415.154z"/>
	<path style="fill:#FADC60;" d="M419.715,248.231c-3.483,5.287-7.057,10.493-10.654,15.655c-3.862,5.54-7.805,11.022-11.815,16.436
		c-28.125-21.424-52.813-43.607-74.214-65.203c21.39-28.217,35.527-51.365,43.044-64.583
		C389.555,176.109,408.163,209.682,419.715,248.231z"/>
	<path style="fill:#FADC60;" d="M167.913,479.449c-13.965,7.391-28.252,14.275-42.906,20.631
		c-8.862-6.517-15.987-15.459-20.333-26.09c-7.413-18.091-13.379-38.079-17.677-58.836c2.621-1.344,5.207-2.712,7.781-4.092
		C115.524,433.36,139.833,456.669,167.913,479.449z"/>
	<path style="fill:#FADC60;" d="M331.604,356.686c-9.678,9.769-19.631,19.263-29.837,28.47
		c-14.884,13.424-30.125,26.079-45.768,37.952c-15.643-11.873-30.884-24.528-45.768-37.952c-10.206-9.207-20.16-18.7-29.837-28.47
		c28.596-21.274,53.745-43.412,75.605-65.065C277.86,313.274,303.009,335.41,331.604,356.686z"/>
	<path style="fill:#FADC60;" d="M344.086,479.449c-13.596,11.033-28.09,21.941-43.48,32.55h-89.214
		c-15.39-10.609-29.883-21.516-43.481-32.55c30.884-16.31,60.135-35.09,88.087-56.342
		C283.952,444.359,313.203,463.139,344.086,479.449z"/>
	<path style="fill:#FADC60;" d="M432.852,339.916c0,19.597-1.701,39.699-4.919,59.377c-3.459,3.885-7.034,7.805-10.712,11.77
		c-31.412-16.781-59.905-35.228-85.616-54.376c23.631-23.872,45.618-49.388,65.64-76.363c10.736,8.172,21.976,16.241,33.722,24.113
		C432.208,316.021,432.852,327.859,432.852,339.916z"/>
	<path style="fill:#FADC60;" d="M323.03,215.118c-17.413,22.999-39.641,49.365-67.031,76.501
		c-27.389-27.136-49.618-53.502-67.031-76.501c23.55-23.768,43.136-46.825,58.985-67.41h16.091
		C279.895,168.293,299.48,191.35,323.03,215.118z"/>
	<path style="fill:#FADC60;" d="M180.395,356.686c-25.711,19.148-54.204,37.595-85.616,54.376
		c-3.678-3.965-7.252-7.885-10.712-11.77c-3.218-19.677-4.919-39.779-4.919-59.377c0-12.057,0.644-23.895,1.885-35.48
		c11.746-7.873,22.987-15.942,33.722-24.113C134.776,307.298,156.763,332.813,180.395,356.686z"/>
</g>
<g>
</g>
<g>
</g>
<g>
</g>
<g>
</g>
<g>
</g>
<g>
</g>
<g>
</g>
<g>
</g>
<g>
</g>
<g>
</g>
<g>
</g>
<g>
</g>
<g>
</g>
<g>
</g>
<g>
</g>
</svg>
