<svg height="512pt" viewBox="0 -6 512 511" width="512pt" xmlns="http://www.w3.org/2000/svg"><path d="m317.578125 470.36875h2.324219c-5.78125-9.5625-16.289063-15.953125-28.292969-15.953125h-23.589844c-4.167969 0-8.148437.773437-11.820312 2.179687v34.628907h34.765625l.199218-.734375c3.257813-11.847657 14.117188-20.121094 26.414063-20.121094zm0 0" fill="#e3fffe" stroke="#e3fffe" stroke-miterlimit="10" transform="translate(0 -6.275)"/><path d="m363.097656 484.949219c-2.945312-12.523438-14.207031-21.855469-27.660156-21.855469h-17.859375c-13.449219 0-24.710937 9.332031-27.65625 21.855469zm0 0" fill="#c7fffd"/><path d="m129.625 491.224219c-2.945312-12.523438-14.203125-21.855469-27.65625-21.855469h-17.863281c-13.449219 0-24.710938 9.332031-27.65625 21.855469zm0 0" fill="#e3fffe" stroke="#e3fffe" stroke-miterlimit="10" transform="translate(0 -6.275)"/><path d="m487.195312 196.765625c-.503906-.925781-1.484374-1.496094-2.535156-1.464844-12.300781.320313-23.308594 6.871094-29.449218 17.523438-3.628907 6.285156-5.152344 13.328125-4.597657 20.273437h6.511719c7.535156 0 14.097656 4.230469 17.453125 10.441406 4.953125-3.003906 9.15625-7.242187 12.179687-12.484374 6.140626-10.648438 6.308594-23.464844.4375-34.289063zm0 0" fill="#a57b5b"/><path d="m432.257812 387.570312-.613281-.1875c-17.546875-5.449218-29.898437-21.453124-30.738281-39.824218l-.042969-.953125h-33.484375l41.824219 117.976562h33.070313zm0 0" fill="#a57b5b"/><path d="m457.125 232.097656h-225.824219l-4.886719-19.957031h-36.414062v87.710937c0 13.738282-11.136719 24.875-24.871094 24.875-5.257812 0-10.125-1.648437-14.140625-4.433593v144.289062h33.191407v-116.976562h39.828124v116.976562h33.191407v-116.976562h142.707031c.878906 19.207031 13.832031 35.261719 31.441406 40.730469l9.917969 76.246093h36.683594v-211.636719c0-11.464843-9.371094-20.847656-20.824219-20.847656zm0 0" fill="#c6a07d"/><path d="m150.988281 463.304688h33.191407v21.644531h-33.191407zm0 0" fill="#775436"/><path d="m173.9375 212.140625-.230469.683594c-2.777343 8.320312-10.527343 13.910156-19.28125 13.910156-1.175781 0-2.316406-.121094-3.4375-.3125v93.9375c4.25 3.390625 9.628907 5.417969 15.484375 5.417969 13.738282 0 24.871094-11.136719 24.871094-24.875v-88.761719zm0 0" fill="#ffd5b3"/><path d="m227.546875 179.785156h-16.769531c-9.144532 8.429688-20.960938 13.070313-33.40625 13.070313h-7.765625c3.203125 3.597656 5.164062 8.324219 5.164062 13.511719 0 2.375-.429687 4.652343-1.179687 6.773437h53.957031c1.671875 0 3.042969-1.371094 3.042969-3.046875v-27.261719c.003906-1.675781-1.367188-3.046875-3.042969-3.046875zm0 0" fill="#ef5050"/><path d="m137.144531 193.855469c-2.546875 3.519531-4.066406 7.832031-4.066406 12.511719 0 11.800781 9.558594 21.367187 21.347656 21.367187 11.789063 0 21.34375-9.566406 21.34375-21.367187 0-4.679688-1.519531-8.992188-4.066406-12.511719zm0 0" fill="#ffc502"/><path d="m299.371094.5c-7.1875 0-13.015625 5.835938-13.015625 13.027344v22.933594c0 6.210937-5.433594 14.289062-11.179688 16.628906l-9.648437 3.925781v-13.257813c0-7.195312-5.828125-13.027343-13.015625-13.027343s-13.015625 5.832031-13.015625 13.027343v23.847657l-17.703125 7.207031v-6.039062c0-7.195313-5.828125-13.027344-13.015625-13.027344s-13.015625 5.832031-13.015625 13.027344v16.628906l-21.085938 8.582031h2.691407c9.320312 0 18.402343 2.621094 26.269531 7.582031l.820312.519532.542969-.804688c5.089844-7.523438 12.769531-12.976562 21.617188-15.351562 3.265624-.875 6.613281-1.320313 9.953124-1.320313 6.503907 0 12.8125 1.683594 18.414063 4.828125l29.992187-12.207031c15.625-6.355469 27.410157-23.882813 27.410157-40.769531v-22.929688c0-7.195312-5.828125-13.03125-13.015625-13.03125zm0 0" fill="#c5ccd3"/><path d="m76.859375 84.609375c3.335937 0 6.6875.445313 9.949219 1.320313 9.59375 2.574218 17.667968 8.640624 22.734375 17.082031l.558593.933593.882813-.636718c7.902344-5.703125 17.136719-8.894532 26.828125-9.28125l-21.1875-8.621094v-16.632812c0-7.195313-5.828125-13.027344-13.015625-13.027344s-13.015625 5.832031-13.015625 13.027344v6.039062l-17.703125-7.203125v-23.851563c0-7.195312-5.828125-13.027343-13.015625-13.027343-7.191406 0-13.015625 5.832031-13.015625 13.027343v13.257813l-9.648437-3.925781c-5.746094-2.339844-11.179688-10.417969-11.179688-16.628906v-22.929688c0-7.195312-5.828125-13.03125-13.015625-13.03125s-13.015625 5.835938-13.015625 13.03125v22.933594c0 16.882812 11.78125 34.410156 27.40625 40.765625l30.59375 12.449219c5.710938-3.308594 12.183594-5.070313 18.859375-5.070313zm0 0" fill="#c5ccd3"/><path d="m110.902344 103.394531c-5.089844-9.011719-13.546875-15.671875-23.832032-18.429687-13.230468-3.550782-27.0625-.027344-37.011718 9.421875-.851563.808593-1.179688 2.027343-.84375 3.15625 3.894531 13.160156 14.117187 23.136719 27.34375 26.6875 5.847656 1.566406 11.808594 1.75 17.503906.652343 3.511719-8.648437 9.390625-16.082031 16.839844-21.488281zm0 0" fill="#a57b5b"/><path d="m263.371094 94.386719c-9.945313-9.449219-23.78125-12.972657-37.011719-9.421875-9.246094 2.476562-17.011719 8.105468-22.1875 15.757812-7.761719-4.898437-16.949219-7.738281-26.800781-7.738281h-37.539063c-27.824219 0-50.382812 22.582031-50.382812 50.4375 0 1.40625.070312 2.792969.1875 4.171875 1.992187-2.15625 4.832031-3.515625 7.984375-3.515625h16.480468c4.269532 0 7.96875 2.480469 9.753907 6.070313h9.738281c11.917969 0 21.617188 9.707031 21.617188 21.636718 0 10.421875-7.398438 19.144532-17.210938 21.1875v.882813c.605469.023437 39.371094 0 39.371094 0 13.542968 0 25.832031-5.363281 34.886718-14.070313h6.234376l-1.332032-5.445312c6.632813-8.539063 10.59375-19.265625 10.59375-30.917969 0-6.308594-1.167968-12.335937-3.277344-17.898437 4.101563.230468 8.277344-.1875 12.394532-1.292969 13.230468-3.546875 23.449218-13.523438 27.347656-26.683594.332031-1.132813.007812-2.347656-.847656-3.160156zm0 0" fill="#c6a07d"/><path d="m133.59375 149.148438h-10.300781c1.074219 1.691406 1.710937 3.691406 1.710937 5.84375 0 6.015624-4.890625 10.910156-10.902344 10.910156h-16.480468c-6.007813 0-10.898438-4.894532-10.898438-10.910156 0-2.007813.554688-3.882813 1.5-5.5-10.625 1.855468-18.707031 11.125-18.707031 22.292968 0 12.503906 10.125 22.640625 22.617187 22.640625h41.460938c12.492188 0 22.617188-10.136719 22.617188-22.640625 0-12.5-10.125-22.636718-22.617188-22.636718zm0 0" fill="#ffd5b3"/><path d="m126.003906 154.992188c0 6.578124-5.328125 11.910156-11.902344 11.910156h-16.480468c-6.570313 0-11.898438-5.332032-11.898438-11.910156 0-6.582032 5.328125-11.914063 11.898438-11.914063h16.480468c6.574219 0 11.902344 5.332031 11.902344 11.914063zm0 0" fill="#ef5050"/><path d="m164.523438 138.296875c-4.140626 0-7.5-3.359375-7.5-7.5v-3.128906c0-4.144531 3.359374-7.5 7.5-7.5 4.144531 0 7.5 3.355469 7.5 7.5v3.128906c0 4.140625-3.355469 7.5-7.5 7.5zm0 0" fill="#775436"/><path d="m116.625 138.296875c-4.140625 0-7.5-3.359375-7.5-7.5v-3.128906c0-4.144531 3.359375-7.5 7.5-7.5 4.144531 0 7.5 3.355469 7.5 7.5v3.128906c0 4.140625-3.355469 7.5-7.5 7.5zm0 0" fill="#775436"/><path d="m444.925781 484.949219-2.816406-21.644531h-33.355469l7.671875 21.644531zm0 0" fill="#5b4025"/><path d="m477.949219 484.949219v-21.644531h-36.847657l2.8125 21.644531zm0 0" fill="#775436"/><path d="m224.007812 463.304688h33.191407v21.644531h-33.191407zm0 0" fill="#775436"/><path d="m295.695312 286.148438h-16.632812c-3.46875 0-6.289062-2.824219-6.289062-6.296876v-47.753906h-21.824219v47.753906c0 15.542969 12.585937 28.140626 28.113281 28.140626h16.632812zm0 0" fill="#c0272d"/><path d="m379.066406 232.097656v47.753906c0 3.472657-2.820312 6.296876-6.289062 6.296876h-16.632813v21.847656h16.632813c15.527344 0 28.113281-12.601563 28.113281-28.144532v-47.753906zm0 0" fill="#c0272d"/><path d="m294.695312 285.773438h62.449219v61.832031h-62.449219zm0 0" fill="#368c0e"/><path d="m279.0625 287.148438c-4.019531 0-7.289062-3.273438-7.289062-7.296876v-47.753906h108.292968v47.753906c0 4.023438-3.269531 7.296876-7.289062 7.296876zm0 0" fill="#ef5050"/><path d="m504.5 483.949219h-448.808594c-4.140625 0-7.5 3.359375-7.5 7.5 0 4.144531 3.359375 7.5 7.5 7.5h448.808594c4.144531 0 7.5-3.355469 7.5-7.5 0-4.140625-3.355469-7.5-7.5-7.5zm0 0" fill="#a2f9f9"/></svg>