<?xml version="1.0" encoding="iso-8859-1"?>
<!-- Generator: Adobe Illustrator 19.0.0, SVG Export Plug-In . SVG Version: 6.00 Build 0)  -->
<svg version="1.1" id="Layer_1" xmlns="http://www.w3.org/2000/svg" xmlns:xlink="http://www.w3.org/1999/xlink" x="0px" y="0px"
	 viewBox="0 0 512.001 512.001" style="enable-background:new 0 0 512.001 512.001;" xml:space="preserve">
<path style="fill:#ACABB1;" d="M471.873,345.738c20.039-2.02,37.921,12.589,39.941,32.628s-12.589,37.921-32.628,39.941
	c-20.039,2.02-110.942-5.231-112.961-25.27C364.206,372.997,451.834,347.758,471.873,345.738z"/>
<path style="fill:#898890;" d="M366.225,393.036c1.323,13.125,40.775,20.763,73.473,23.905
	c20.406-32.419,18.196-66.598,18.096-68.586C426.202,355.663,364.527,376.187,366.225,393.036z"/>
<path style="fill:#C6C5CA;" d="M479.438,368.923c20.018,2.224,34.442,20.254,32.218,40.272
	c-2.224,20.018-20.254,34.442-40.272,32.218c-20.018-2.224-107.383-28.359-105.16-48.377
	C368.449,373.019,459.42,366.699,479.438,368.923z"/>
<path style="fill:#ACABB1;" d="M96.61,441.64c5.419-0.191,22.886-2.375,34.823-21.871c16.196-30.73,24.296-62.646,23.715-94.363
	c-0.136-7.381-1.879-14.359-4.888-20.599c-8.15-16.898-25.587-28.412-45.573-28.045c-27.367,0.502-49.147,23.094-48.645,50.461
	c0.638,34.812-23.285,67.773-45.534,90.068c-5.349,5.603-21.523,24.348,1.547,24.348L96.61,441.64L96.61,441.64z"/>
<path style="fill:#898890;" d="M155.148,325.406c-0.136-7.381-1.879-14.359-4.888-20.599c-8.15-16.898-25.587-28.412-45.573-28.045
	c-27.367,0.502-49.147,23.094-48.645,50.461c0.443,24.173-10.96,47.45-25.418,66.887c6.535,18.334,17.458,34.601,31.504,47.529
	H96.61c5.419-0.191,22.886-2.375,34.823-21.871C147.63,389.038,155.73,357.123,155.148,325.406z"/>
<path style="fill:#ACABB1;" d="M456.789,368.786c-34.006,1.475-88.843,8.763-90.564,24.25
	c-1.398,12.584,32.605,27.582,63.027,37.541C443.753,413.389,453.943,392.226,456.789,368.786z"/>
<path style="fill:#E0E0E2;" d="M339.17,267.173h-59.147c-47.982,0-50.344-44.012-50.432-50.493v-59.086
	c0-47.979-39.255-87.233-87.233-87.233l0,0c-47.979,0-87.233,39.255-87.233,87.233v196.813l0,0
	c0,47.979,39.255,87.233,87.233,87.233h196.812c47.979,0,87.233-39.255,87.233-87.233l0,0
	C426.403,306.428,387.149,267.173,339.17,267.173z"/>
<g>
	<path style="fill:#D8D7DA;" d="M104.465,354.406L104.465,354.406V157.594c0-39.417,26.504-72.924,62.563-83.636
		c-7.833-2.327-16.108-3.598-24.67-3.598c-47.979,0-87.233,39.255-87.233,87.233v196.812l0,0c0,47.979,39.255,87.233,87.233,87.233
		h49.341C143.721,441.64,104.465,402.385,104.465,354.406z"/>
	<path style="fill:#D8D7DA;" d="M381.478,331.645c-3.624-6.704-8.865-12.535-15.159-16.863c-3.566-2.452-4.47-7.332-2.018-10.898
		c2.452-3.565,7.331-4.469,10.897-2.018c8.331,5.728,15.269,13.448,20.067,22.325c2.058,3.808,0.754,8.79-3.167,10.62
		C387.832,336.805,382.895,334.269,381.478,331.645z"/>
	<path style="fill:#D8D7DA;" d="M339.171,418.129c-4.329,0-7.837-3.509-7.837-7.837c0-4.328,3.508-7.837,7.837-7.837
		c26.493,0,48.049-21.555,48.049-48.05c0-4.328,3.508-7.837,7.837-7.837s7.837,3.509,7.837,7.837
		C402.893,389.543,374.308,418.129,339.171,418.129z"/>
	<path style="fill:#D8D7DA;" d="M337.502,368.401c-2.43,0-4.798-0.982-6.503-2.7c-1.719-1.706-2.7-4.087-2.7-6.503
		c0-2.418,0.981-4.798,2.7-6.504c1.705-1.718,4.073-2.699,6.503-2.699c2.429,0,4.798,0.981,6.503,2.699
		c1.719,1.706,2.7,4.087,2.7,6.504c0,2.417-0.981,4.798-2.7,6.503C342.301,367.418,339.932,368.401,337.502,368.401z"/>
	<path style="fill:#D8D7DA;" d="M311.38,327.326c-2.43,0-4.798-0.982-6.503-2.7c-1.719-1.706-2.7-4.087-2.7-6.503
		c0-2.418,0.981-4.798,2.7-6.504c1.705-1.718,4.073-2.699,6.503-2.699c2.429,0,4.798,0.981,6.503,2.699
		c1.719,1.706,2.7,4.087,2.7,6.504c0,2.417-0.981,4.798-2.7,6.503C316.178,326.345,313.809,327.326,311.38,327.326z"/>
	<path style="fill:#D8D7DA;" d="M292.972,368.401c-2.43,0-4.798-0.982-6.503-2.7c-1.719-1.706-2.7-4.087-2.7-6.503
		c0-2.418,0.981-4.798,2.7-6.504c1.705-1.718,4.073-2.699,6.503-2.699c2.429,0,4.798,0.981,6.503,2.699
		c1.719,1.706,2.7,4.087,2.7,6.504c0,2.417-0.981,4.798-2.7,6.503C297.77,367.418,295.401,368.401,292.972,368.401z"/>
</g>
<path style="fill:#C6C5CA;" d="M192.879,441.64c5.419-0.191,22.886-2.375,34.823-21.871c16.196-30.73,24.296-62.646,23.715-94.363
	c-0.136-7.381-1.879-14.359-4.888-20.599c-8.15-16.898-25.587-28.412-45.573-28.045c-27.367,0.502-49.147,23.094-48.645,50.461
	c0.638,34.812-23.285,67.773-45.534,90.068c-5.349,5.603-21.523,24.348,1.547,24.348L192.879,441.64L192.879,441.64z"/>
<path style="fill:#ACABB1;" d="M152.311,327.223c0.638,34.812-23.285,67.773-45.534,90.068c-5.349,5.603-21.523,24.348,1.548,24.348
	h44.931c-23.071,0-6.897-18.745-1.548-24.348c22.249-22.295,46.172-55.256,45.534-90.068c-0.359-19.602,10.714-36.751,27.083-45.092
	c-7.005-3.568-14.96-5.524-23.369-5.371C173.588,277.264,151.809,299.856,152.311,327.223z"/>
<g>
	<path style="fill:#57565C;" d="M94.66,155.463c-2.43,0-4.798-0.982-6.503-2.7c-1.719-1.706-2.7-4.087-2.7-6.503
		c0-2.418,0.981-4.798,2.7-6.505c1.705-1.718,4.073-2.699,6.503-2.699c2.429,0,4.798,0.981,6.503,2.699
		c1.719,1.706,2.7,4.087,2.7,6.505c0,2.417-0.981,4.798-2.7,6.503C99.458,154.481,97.089,155.463,94.66,155.463z"/>
	<path style="fill:#57565C;" d="M145.545,155.463c-2.43,0-4.798-0.982-6.503-2.7c-1.719-1.706-2.7-4.087-2.7-6.503
		c0-2.418,0.981-4.798,2.7-6.505c1.705-1.718,4.073-2.699,6.503-2.699c2.429,0,4.798,0.981,6.503,2.699
		c1.719,1.706,2.7,4.087,2.7,6.505c0,2.417-0.981,4.798-2.7,6.503C150.344,154.481,147.975,155.463,145.545,155.463z"/>
	<path style="fill:#57565C;" d="M107.089,177.813l7.946,7.32c2.865,2.639,7.277,2.639,10.142,0l8.148-7.505
		c2.268-2.089,3.023-5.355,1.902-8.228c-1.121-2.872-3.889-4.763-6.973-4.763h-16.296c-0.002,0-0.005,0-0.007,0
		c-4.134,0-7.485,3.351-7.485,7.485C104.466,174.401,105.483,176.44,107.089,177.813z"/>
</g>
<g>
	<path style="fill:#898890;" d="M198.66,176.588h-32.392c-4.329,0-7.837-3.509-7.837-7.837c0-4.328,3.508-7.837,7.837-7.837h32.392
		c4.329,0,7.837,3.509,7.837,7.837C206.496,173.079,202.989,176.588,198.66,176.588z"/>
	<path style="fill:#898890;" d="M180.133,205.95l-28.313-8.819c-4.133-1.287-6.439-5.681-5.152-9.813
		c1.287-4.132,5.675-6.44,9.814-5.151l28.313,8.819c4.133,1.287,6.221,5.619,5.152,9.813
		C188.082,208.109,180.91,206.192,180.133,205.95z"/>
	<path style="fill:#898890;" d="M73.937,176.588H41.546c-4.329,0-7.837-3.509-7.837-7.837c0-4.328,3.508-7.837,7.837-7.837h32.392
		c4.329,0,7.837,3.509,7.837,7.837C81.774,173.079,78.265,176.588,73.937,176.588z"/>
	<path style="fill:#898890;" d="M50.259,200.798c-1.436-4.082,1.02-8.525,5.152-9.813l28.313-8.819
		c4.133-1.288,8.525,1.019,9.814,5.151c1.286,4.133-1.02,8.525-5.152,9.813l-28.313,8.819
		C59.296,206.192,52.768,207.935,50.259,200.798z"/>
</g>
<g>
</g>
<g>
</g>
<g>
</g>
<g>
</g>
<g>
</g>
<g>
</g>
<g>
</g>
<g>
</g>
<g>
</g>
<g>
</g>
<g>
</g>
<g>
</g>
<g>
</g>
<g>
</g>
<g>
</g>
</svg>
